<?xml version="1.0" encoding="UTF-8"?>
<!-- Generated by SVGo -->
<svg width="258.601mm" height="125.250mm" viewBox="0.000 0.000 258.601 125.250" xmlns="http://www.w3.org/2000/svg" xmlns:xlink="http://www.w3.org/1999/xlink">
<polygon points="253.601,120.250 5.000,120.250 5.000,5.000 253.601,5.000" style="fill:none;stroke-width:0.050000mm;stroke:black"/>
<polygon points="17.525,93.725 17.525,94.324 16.724,94.324 16.724,107.125 17.525,107.125 17.525,107.725 31.525,107.725 31.525,107.125 32.323,107.125 32.323,94.324 31.525,94.324 31.525,93.725" style="fill:none;stroke-width:0.050000mm;stroke:black"/>
<polygon points="36.575,93.725 36.575,94.324 35.775,94.324 35.775,107.125 36.575,107.125 36.575,107.725 50.575,107.725 50.575,107.125 51.375,107.125 51.375,94.324 50.575,94.324 50.575,93.725" style="fill:none;stroke-width:0.050000mm;stroke:black"/>
<polygon points="55.625,93.725 55.625,94.324 54.825,94.324 54.825,107.125 55.625,107.125 55.625,107.725 69.625,107.725 69.625,107.125 70.425,107.125 70.425,94.324 69.625,94.324 69.625,93.725" style="fill:none;stroke-width:0.050000mm;stroke:black"/>
<polygon points="74.675,93.725 74.675,94.324 73.875,94.324 73.875,107.125 74.675,107.125 74.675,107.725 88.675,107.725 88.675,107.125 89.475,107.125 89.475,94.324 88.675,94.324 88.675,93.725" style="fill:none;stroke-width:0.050000mm;stroke:black"/>
<polygon points="93.725,93.725 93.725,94.324 92.925,94.324 92.925,107.125 93.725,107.125 93.725,107.725 107.725,107.725 107.725,107.125 108.524,107.125 108.524,94.324 107.725,94.324 107.725,93.725" style="fill:none;stroke-width:0.050000mm;stroke:black"/>
<polygon points="112.774,93.725 112.774,94.324 111.975,94.324 111.975,107.125 112.774,107.125 112.774,107.725 126.774,107.725 126.774,107.125 127.574,107.125 127.574,94.324 126.774,94.324 126.774,93.725" style="fill:none;stroke-width:0.050000mm;stroke:black"/>
<polygon points="131.825,93.725 131.825,94.324 131.024,94.324 131.024,107.125 131.825,107.125 131.825,107.725 145.825,107.725 145.825,107.125 146.625,107.125 146.625,94.324 145.825,94.324 145.825,93.725" style="fill:none;stroke-width:0.050000mm;stroke:black"/>
<polygon points="150.875,93.725 150.875,94.324 150.075,94.324 150.075,107.125 150.875,107.125 150.875,107.725 164.875,107.725 164.875,107.125 165.675,107.125 165.675,94.324 164.875,94.324 164.875,93.725" style="fill:none;stroke-width:0.050000mm;stroke:black"/>
<polygon points="169.925,93.725 169.925,94.324 169.125,94.324 169.125,107.125 169.925,107.125 169.925,107.725 183.925,107.725 183.925,107.125 184.725,107.125 184.725,94.324 183.925,94.324 183.925,93.725" style="fill:none;stroke-width:0.050000mm;stroke:black"/>
<polygon points="188.975,93.725 188.975,94.324 188.175,94.324 188.175,107.125 188.975,107.125 188.975,107.725 202.975,107.725 202.975,107.125 203.775,107.125 203.775,94.324 202.975,94.324 202.975,93.725" style="fill:none;stroke-width:0.050000mm;stroke:black"/>
<polygon points="208.025,93.725 208.025,94.324 207.225,94.324 207.225,107.125 208.025,107.125 208.025,107.725 222.025,107.725 222.025,107.125 222.825,107.125 222.825,94.324 222.025,94.324 222.025,93.725" style="fill:none;stroke-width:0.050000mm;stroke:black"/>
<polygon points="227.075,93.725 227.075,94.324 226.275,94.324 226.275,107.125 227.075,107.125 227.075,107.725 241.075,107.725 241.075,107.125 241.875,107.125 241.875,94.324 241.075,94.324 241.075,93.725" style="fill:none;stroke-width:0.050000mm;stroke:black"/>
<polygon points="17.525,74.675 17.525,75.274 16.724,75.274 16.724,88.075 17.525,88.075 17.525,88.675 31.525,88.675 31.525,88.075 32.323,88.075 32.323,75.274 31.525,75.274 31.525,74.675" style="fill:none;stroke-width:0.050000mm;stroke:black"/>
<polygon points="36.575,74.675 36.575,75.274 35.775,75.274 35.775,88.075 36.575,88.075 36.575,88.675 50.575,88.675 50.575,88.075 51.375,88.075 51.375,75.274 50.575,75.274 50.575,74.675" style="fill:none;stroke-width:0.050000mm;stroke:black"/>
<polygon points="55.625,74.675 55.625,75.274 54.825,75.274 54.825,88.075 55.625,88.075 55.625,88.675 69.625,88.675 69.625,88.075 70.425,88.075 70.425,75.274 69.625,75.274 69.625,74.675" style="fill:none;stroke-width:0.050000mm;stroke:black"/>
<polygon points="74.675,74.675 74.675,75.274 73.875,75.274 73.875,88.075 74.675,88.075 74.675,88.675 88.675,88.675 88.675,88.075 89.475,88.075 89.475,75.274 88.675,75.274 88.675,74.675" style="fill:none;stroke-width:0.050000mm;stroke:black"/>
<polygon points="93.725,74.675 93.725,75.274 92.925,75.274 92.925,88.075 93.725,88.075 93.725,88.675 107.725,88.675 107.725,88.075 108.524,88.075 108.524,75.274 107.725,75.274 107.725,74.675" style="fill:none;stroke-width:0.050000mm;stroke:black"/>
<polygon points="112.774,74.675 112.774,75.274 111.975,75.274 111.975,88.075 112.774,88.075 112.774,88.675 126.774,88.675 126.774,88.075 127.574,88.075 127.574,75.274 126.774,75.274 126.774,74.675" style="fill:none;stroke-width:0.050000mm;stroke:black"/>
<polygon points="131.825,74.675 131.825,75.274 131.024,75.274 131.024,88.075 131.825,88.075 131.825,88.675 145.825,88.675 145.825,88.075 146.625,88.075 146.625,75.274 145.825,75.274 145.825,74.675" style="fill:none;stroke-width:0.050000mm;stroke:black"/>
<polygon points="150.875,74.675 150.875,75.274 150.075,75.274 150.075,88.075 150.875,88.075 150.875,88.675 164.875,88.675 164.875,88.075 165.675,88.075 165.675,75.274 164.875,75.274 164.875,74.675" style="fill:none;stroke-width:0.050000mm;stroke:black"/>
<polygon points="169.925,74.675 169.925,75.274 169.125,75.274 169.125,88.075 169.925,88.075 169.925,88.675 183.925,88.675 183.925,88.075 184.725,88.075 184.725,75.274 183.925,75.274 183.925,74.675" style="fill:none;stroke-width:0.050000mm;stroke:black"/>
<polygon points="188.975,74.675 188.975,75.274 188.175,75.274 188.175,88.075 188.975,88.075 188.975,88.675 202.975,88.675 202.975,88.075 203.775,88.075 203.775,75.274 202.975,75.274 202.975,74.675" style="fill:none;stroke-width:0.050000mm;stroke:black"/>
<polygon points="208.025,74.675 208.025,75.274 207.225,75.274 207.225,88.075 208.025,88.075 208.025,88.675 222.025,88.675 222.025,88.075 222.825,88.075 222.825,75.274 222.025,75.274 222.025,74.675" style="fill:none;stroke-width:0.050000mm;stroke:black"/>
<polygon points="227.075,74.675 227.075,75.274 226.275,75.274 226.275,88.075 227.075,88.075 227.075,88.675 241.075,88.675 241.075,88.075 241.875,88.075 241.875,75.274 241.075,75.274 241.075,74.675" style="fill:none;stroke-width:0.050000mm;stroke:black"/>
<polygon points="17.525,55.625 17.525,56.225 16.724,56.225 16.724,69.025 17.525,69.025 17.525,69.625 31.525,69.625 31.525,69.025 32.323,69.025 32.323,56.225 31.525,56.225 31.525,55.625" style="fill:none;stroke-width:0.050000mm;stroke:black"/>
<polygon points="36.575,55.625 36.575,56.225 35.775,56.225 35.775,69.025 36.575,69.025 36.575,69.625 50.575,69.625 50.575,69.025 51.375,69.025 51.375,56.225 50.575,56.225 50.575,55.625" style="fill:none;stroke-width:0.050000mm;stroke:black"/>
<polygon points="55.625,55.625 55.625,56.225 54.825,56.225 54.825,69.025 55.625,69.025 55.625,69.625 69.625,69.625 69.625,69.025 70.425,69.025 70.425,56.225 69.625,56.225 69.625,55.625" style="fill:none;stroke-width:0.050000mm;stroke:black"/>
<polygon points="74.675,55.625 74.675,56.225 73.875,56.225 73.875,69.025 74.675,69.025 74.675,69.625 88.675,69.625 88.675,69.025 89.475,69.025 89.475,56.225 88.675,56.225 88.675,55.625" style="fill:none;stroke-width:0.050000mm;stroke:black"/>
<polygon points="93.725,55.625 93.725,56.225 92.925,56.225 92.925,69.025 93.725,69.025 93.725,69.625 107.725,69.625 107.725,69.025 108.524,69.025 108.524,56.225 107.725,56.225 107.725,55.625" style="fill:none;stroke-width:0.050000mm;stroke:black"/>
<polygon points="112.774,55.625 112.774,56.225 111.975,56.225 111.975,69.025 112.774,69.025 112.774,69.625 126.774,69.625 126.774,69.025 127.574,69.025 127.574,56.225 126.774,56.225 126.774,55.625" style="fill:none;stroke-width:0.050000mm;stroke:black"/>
<polygon points="131.825,55.625 131.825,56.225 131.024,56.225 131.024,69.025 131.825,69.025 131.825,69.625 145.825,69.625 145.825,69.025 146.625,69.025 146.625,56.225 145.825,56.225 145.825,55.625" style="fill:none;stroke-width:0.050000mm;stroke:black"/>
<polygon points="150.875,55.625 150.875,56.225 150.075,56.225 150.075,69.025 150.875,69.025 150.875,69.625 164.875,69.625 164.875,69.025 165.675,69.025 165.675,56.225 164.875,56.225 164.875,55.625" style="fill:none;stroke-width:0.050000mm;stroke:black"/>
<polygon points="169.925,55.625 169.925,56.225 169.125,56.225 169.125,69.025 169.925,69.025 169.925,69.625 183.925,69.625 183.925,69.025 184.725,69.025 184.725,56.225 183.925,56.225 183.925,55.625" style="fill:none;stroke-width:0.050000mm;stroke:black"/>
<polygon points="188.975,55.625 188.975,56.225 188.175,56.225 188.175,69.025 188.975,69.025 188.975,69.625 202.975,69.625 202.975,69.025 203.775,69.025 203.775,56.225 202.975,56.225 202.975,55.625" style="fill:none;stroke-width:0.050000mm;stroke:black"/>
<polygon points="208.025,55.625 208.025,56.225 207.225,56.225 207.225,69.025 208.025,69.025 208.025,69.625 222.025,69.625 222.025,69.025 222.825,69.025 222.825,56.225 222.025,56.225 222.025,55.625" style="fill:none;stroke-width:0.050000mm;stroke:black"/>
<polygon points="227.075,55.625 227.075,56.225 226.275,56.225 226.275,69.025 227.075,69.025 227.075,69.625 241.075,69.625 241.075,69.025 241.875,69.025 241.875,56.225 241.075,56.225 241.075,55.625" style="fill:none;stroke-width:0.050000mm;stroke:black"/>
<polygon points="17.525,36.575 17.525,37.175 16.724,37.175 16.724,49.975 17.525,49.975 17.525,50.575 31.525,50.575 31.525,49.975 32.323,49.975 32.323,37.175 31.525,37.175 31.525,36.575" style="fill:none;stroke-width:0.050000mm;stroke:black"/>
<polygon points="36.575,36.575 36.575,37.175 35.775,37.175 35.775,49.975 36.575,49.975 36.575,50.575 50.575,50.575 50.575,49.975 51.375,49.975 51.375,37.175 50.575,37.175 50.575,36.575" style="fill:none;stroke-width:0.050000mm;stroke:black"/>
<polygon points="55.625,36.575 55.625,37.175 54.825,37.175 54.825,49.975 55.625,49.975 55.625,50.575 69.625,50.575 69.625,49.975 70.425,49.975 70.425,37.175 69.625,37.175 69.625,36.575" style="fill:none;stroke-width:0.050000mm;stroke:black"/>
<polygon points="74.675,36.575 74.675,37.175 73.875,37.175 73.875,49.975 74.675,49.975 74.675,50.575 88.675,50.575 88.675,49.975 89.475,49.975 89.475,37.175 88.675,37.175 88.675,36.575" style="fill:none;stroke-width:0.050000mm;stroke:black"/>
<polygon points="93.725,36.575 93.725,37.175 92.925,37.175 92.925,49.975 93.725,49.975 93.725,50.575 107.725,50.575 107.725,49.975 108.524,49.975 108.524,37.175 107.725,37.175 107.725,36.575" style="fill:none;stroke-width:0.050000mm;stroke:black"/>
<polygon points="112.774,36.575 112.774,37.175 111.975,37.175 111.975,49.975 112.774,49.975 112.774,50.575 126.774,50.575 126.774,49.975 127.574,49.975 127.574,37.175 126.774,37.175 126.774,36.575" style="fill:none;stroke-width:0.050000mm;stroke:black"/>
<polygon points="131.825,36.575 131.825,37.175 131.024,37.175 131.024,49.975 131.825,49.975 131.825,50.575 145.825,50.575 145.825,49.975 146.625,49.975 146.625,37.175 145.825,37.175 145.825,36.575" style="fill:none;stroke-width:0.050000mm;stroke:black"/>
<polygon points="150.875,36.575 150.875,37.175 150.075,37.175 150.075,49.975 150.875,49.975 150.875,50.575 164.875,50.575 164.875,49.975 165.675,49.975 165.675,37.175 164.875,37.175 164.875,36.575" style="fill:none;stroke-width:0.050000mm;stroke:black"/>
<polygon points="169.925,36.575 169.925,37.175 169.125,37.175 169.125,49.975 169.925,49.975 169.925,50.575 183.925,50.575 183.925,49.975 184.725,49.975 184.725,37.175 183.925,37.175 183.925,36.575" style="fill:none;stroke-width:0.050000mm;stroke:black"/>
<polygon points="188.975,36.575 188.975,37.175 188.175,37.175 188.175,49.975 188.975,49.975 188.975,50.575 202.975,50.575 202.975,49.975 203.775,49.975 203.775,37.175 202.975,37.175 202.975,36.575" style="fill:none;stroke-width:0.050000mm;stroke:black"/>
<polygon points="208.025,36.575 208.025,37.175 207.225,37.175 207.225,49.975 208.025,49.975 208.025,50.575 222.025,50.575 222.025,49.975 222.825,49.975 222.825,37.175 222.025,37.175 222.025,36.575" style="fill:none;stroke-width:0.050000mm;stroke:black"/>
<polygon points="227.075,36.575 227.075,37.175 226.275,37.175 226.275,49.975 227.075,49.975 227.075,50.575 241.075,50.575 241.075,49.975 241.875,49.975 241.875,37.175 241.075,37.175 241.075,36.575" style="fill:none;stroke-width:0.050000mm;stroke:black"/>
<polygon points="17.525,17.525 17.525,18.125 16.724,18.125 16.724,30.924 17.525,30.924 17.525,31.525 31.525,31.525 31.525,30.924 32.323,30.924 32.323,18.125 31.525,18.125 31.525,17.525" style="fill:none;stroke-width:0.050000mm;stroke:black"/>
<polygon points="36.575,17.525 36.575,18.125 35.775,18.125 35.775,30.924 36.575,30.924 36.575,31.525 50.575,31.525 50.575,30.924 51.375,30.924 51.375,18.125 50.575,18.125 50.575,17.525" style="fill:none;stroke-width:0.050000mm;stroke:black"/>
<polygon points="55.625,17.525 55.625,18.125 54.825,18.125 54.825,30.924 55.625,30.924 55.625,31.525 69.625,31.525 69.625,30.924 70.425,30.924 70.425,18.125 69.625,18.125 69.625,17.525" style="fill:none;stroke-width:0.050000mm;stroke:black"/>
<polygon points="74.675,17.525 74.675,18.125 73.875,18.125 73.875,30.924 74.675,30.924 74.675,31.525 88.675,31.525 88.675,30.924 89.475,30.924 89.475,18.125 88.675,18.125 88.675,17.525" style="fill:none;stroke-width:0.050000mm;stroke:black"/>
<polygon points="93.725,17.525 93.725,18.125 92.925,18.125 92.925,30.924 93.725,30.924 93.725,31.525 107.725,31.525 107.725,30.924 108.524,30.924 108.524,18.125 107.725,18.125 107.725,17.525" style="fill:none;stroke-width:0.050000mm;stroke:black"/>
<polygon points="112.774,17.525 112.774,18.125 111.975,18.125 111.975,30.924 112.774,30.924 112.774,31.525 126.774,31.525 126.774,30.924 127.574,30.924 127.574,18.125 126.774,18.125 126.774,17.525" style="fill:none;stroke-width:0.050000mm;stroke:black"/>
<polygon points="131.825,17.525 131.825,18.125 131.024,18.125 131.024,30.924 131.825,30.924 131.825,31.525 145.825,31.525 145.825,30.924 146.625,30.924 146.625,18.125 145.825,18.125 145.825,17.525" style="fill:none;stroke-width:0.050000mm;stroke:black"/>
<polygon points="150.875,17.525 150.875,18.125 150.075,18.125 150.075,30.924 150.875,30.924 150.875,31.525 164.875,31.525 164.875,30.924 165.675,30.924 165.675,18.125 164.875,18.125 164.875,17.525" style="fill:none;stroke-width:0.050000mm;stroke:black"/>
<polygon points="169.925,17.525 169.925,18.125 169.125,18.125 169.125,30.924 169.925,30.924 169.925,31.525 183.925,31.525 183.925,30.924 184.725,30.924 184.725,18.125 183.925,18.125 183.925,17.525" style="fill:none;stroke-width:0.050000mm;stroke:black"/>
<polygon points="188.975,17.525 188.975,18.125 188.175,18.125 188.175,30.924 188.975,30.924 188.975,31.525 202.975,31.525 202.975,30.924 203.775,30.924 203.775,18.125 202.975,18.125 202.975,17.525" style="fill:none;stroke-width:0.050000mm;stroke:black"/>
<polygon points="208.025,17.525 208.025,18.125 207.225,18.125 207.225,30.924 208.025,30.924 208.025,31.525 222.025,31.525 222.025,30.924 222.825,30.924 222.825,18.125 222.025,18.125 222.025,17.525" style="fill:none;stroke-width:0.050000mm;stroke:black"/>
<polygon points="227.075,17.525 227.075,18.125 226.275,18.125 226.275,30.924 227.075,30.924 227.075,31.525 241.075,31.525 241.075,30.924 241.875,30.924 241.875,18.125 241.075,18.125 241.075,17.525" style="fill:none;stroke-width:0.050000mm;stroke:black"/>
</svg>