solid OpenSCAD_Model
  facet normal 0 -1 0
    outer loop
      vertex -22.702254248593736 43.11888206453689 6.3
      vertex -22.702254248593736 43.11888206453689 -7.416746443057218
      vertex 22.65473724370179 43.11888206453689 -6.3350000660224435
    endloop
  endfacet
  facet normal 0 0 -1
    outer loop
      vertex -22.702254248593736 43.11888206453689 -7.416746443057218
      vertex -22.702254248593736 90.77391163849241 -7.416746443057218
      vertex 22.75 44.75 -7.416746443057218
    endloop
  endfacet
  facet normal 0 -1 0
    outer loop
      vertex -22.702254248593736 43.11888206453689 6.3
      vertex -22.678768836239463 43.11888206453689 6.347766502598143
      vertex -22.68046835582093 43.11888206453689 6.346642126720592
    endloop
  endfacet
  facet normal 0 -1 0
    outer loop
      vertex -22.702254248593736 43.11888206453689 6.3
      vertex 22.65473724370179 43.11888206453689 -6.3350000660224435
      vertex -22.678768836239463 43.11888206453689 6.347766502598143
    endloop
  endfacet
  facet normal 0 -1 0
    outer loop
      vertex -22.678768836239463 43.11888206453689 6.347766502598143
      vertex 22.65473724370179 43.11888206453689 -6.3350000660224435
      vertex -22.702254248593736 43.11888206453689 6.368492941858614
    endloop
  endfacet
  facet normal 0 -1 0
    outer loop
      vertex -22.702254248593736 43.11888206453689 6.368492941858614
      vertex 22.65473724370179 43.11888206453689 -6.3350000660224435
      vertex -22.702254248593736 43.11888206453689 6.414519288570087
    endloop
  endfacet
  facet normal 0 -1 0
    outer loop
      vertex -22.702254248593736 43.11888206453689 6.414519288570087
      vertex 22.65473724370179 43.11888206453689 6.3
      vertex -22.674822966900592 43.11888206453689 6.4617412254456275
    endloop
  endfacet
  facet normal 0 -1 0
    outer loop
      vertex -22.674822966900592 43.11888206453689 6.4617412254456275
      vertex 22.631435940341138 43.11888206453689 6.340359041303224
      vertex -22.65629355176824 43.11888206453689 6.474
    endloop
  endfacet
  facet normal 9.565430181745324e-18 -0.8765515079563101 -0.4813080654835517
    outer loop
      vertex -22.65629355176824 43.11888206453689 6.474
      vertex 22.552929717390697 43.08299746502156 6.5393525300598645
      vertex -22.447070282609303 43.08299746502156 6.539352530059864
    endloop
  endfacet
  facet normal 3.3000717298686013e-7 0.980776848878165 -0.1951327053687001
    outer loop
      vertex -22.173250521276362 96.68827269084042 -7.243123990489306
      vertex -22.702254248593736 96.67031433636033 -7.3333872442055945
      vertex -22.702254248593736 96.6869706582242 -7.249669167111993
    endloop
  endfacet
  facet normal -1.8652308848859535e-7 0.9807848378515468 -0.19509254686040736
    outer loop
      vertex -22.173250521276362 96.68827269084042 -7.243123990489306
      vertex -22.702254248593736 96.6869706582242 -7.249669167111993
      vertex -22.702254248593736 96.78690870707423 -6.747252623712643
    endloop
  endfacet
  facet normal 4.94522033976292e-18 0.980787555755722 -0.19507888269804236
    outer loop
      vertex -19.201785554191577 96.78605521964423 -6.751543656338867
      vertex -22.702254248593736 96.78690870707423 -6.747252623712643
      vertex -22.702254248593736 96.79698875591549 -6.696573706916606
    endloop
  endfacet
  facet normal 4.393473386691242e-14 0.9807840039841975 -0.19509673889823342
    outer loop
      vertex -20.890560946929305 96.79624062394866 -6.700318367129588
      vertex -22.702254248593736 96.80022737438506 -6.680276304520561
      vertex -18.950761852838 96.79211709910285 -6.721048017617624
    endloop
  endfacet
  facet normal -1.86523087841976e-7 0.980784837851547 -0.1950925468604067
    outer loop
      vertex -22.173250521276362 96.68827269084042 -7.243123990489306
      vertex -22.702254248593736 96.78690870707423 -6.747252623712643
      vertex -13.892343523122408 96.76389928560233 -6.862935848532469
    endloop
  endfacet
  facet normal 1.0817638028090268e-16 0.9807840039835002 -0.19509673890173942
    outer loop
      vertex -14.13062036716978 96.82322044098218 -6.564686305180053
      vertex -22.702254248593736 96.80022737438506 -6.680276304520561
      vertex -22.702254248593736 96.83111488370717 -6.524999618520814
    endloop
  endfacet
  facet normal -1.969157026755439e-16 0.9807875557556905 -0.19507888269820078
    outer loop
      vertex -19.201785554191577 96.78605521964423 -6.751543656338867
      vertex -13.892343523122408 96.76389928560233 -6.862935848532469
      vertex -22.702254248593736 96.78690870707423 -6.747252623712643
    endloop
  endfacet
  facet normal 2.4365608051423205e-15 0.9807840039834671 -0.19509673890190554
    outer loop
      vertex -18.950761852838 96.79211709910285 -6.721048017617624
      vertex -22.702254248593736 96.80022737438506 -6.680276304520561
      vertex -14.13062036716978 96.82322044098218 -6.564686305180053
    endloop
  endfacet
  facet normal -1.9365450339958605e-15 0.9807827357705696 -0.1951031143123992
    outer loop
      vertex -6.210525680310225 96.72464140597276 -7.06030354719316
      vertex -22.702254248593736 96.6537356727035 -7.416746443057218
      vertex -22.702254248593736 96.66903836591948 -7.33981985287995
    endloop
  endfacet
  facet normal -0.000009413200249363569 0.9808888657664714 -0.1945688385295985
    outer loop
      vertex -6.210525680310225 96.72464140597276 -7.06030354719316
      vertex -22.702254248593736 96.66903836591948 -7.33981985287995
      vertex -22.702254248593736 96.67031433636033 -7.3333872442055945
    endloop
  endfacet
  facet normal 3.300071728279235e-7 0.9807768488781652 -0.19513270536869914
    outer loop
      vertex -22.173250521276362 96.68827269084042 -7.243123990489306
      vertex -3.002487770972249 96.73545753477748 -7.0059309020566864
      vertex -22.702254248593736 96.67031433636033 -7.3333872442055945
    endloop
  endfacet
  facet normal 0.000003578919772475244 0.9808311364221008 -0.1948596464435914
    outer loop
      vertex -3.0024872836063397 96.73545753395575 -7.00593090618751
      vertex -22.702254248593736 96.79698875591549 -6.696573706916606
      vertex -22.702254248593736 96.79883835277484 -6.687263712658773
    endloop
  endfacet
  facet normal 0.000005102715943419401 0.9808496741535504 -0.19476631301854144
    outer loop
      vertex -3.002487377812248 96.73545753421364 -7.005930904891175
      vertex -19.201785554191577 96.78605521964423 -6.751543656338867
      vertex -22.702254248593736 96.79698875591549 -6.696573706916606
    endloop
  endfacet
  facet normal -1.8652308747180615e-7 0.9807848378515455 -0.19509254686041447
    outer loop
      vertex -22.173250521276362 96.68827269084042 -7.243123990489306
      vertex -13.892343523122408 96.76389928560233 -6.862935848532469
      vertex -3.002487682832038 96.73545753507248 -7.0059309005737305
    endloop
  endfacet
  facet normal 1.544606488880158e-15 0.9807875557557063 -0.19507888269812096
    outer loop
      vertex -19.201785554191577 96.78605521964423 -6.751543656338867
      vertex -3.0024877249161843 96.73545753521145 -7.005930899875049
      vertex -13.892343523122408 96.76389928560233 -6.862935848532469
    endloop
  endfacet
  facet normal 0 0 -1
    outer loop
      vertex -22.702254248593736 95.30569268689912 -7.416746443057218
      vertex 22.75 44.75 -7.416746443057218
      vertex -22.702254248593736 90.77391163849241 -7.416746443057218
    endloop
  endfacet
  facet normal -0.000009413200091491893 0.980888865764652 -0.19456883853877102
    outer loop
      vertex -6.210525680310225 96.72464140597276 -7.06030354719316
      vertex -22.702254248593736 96.67031433636033 -7.3333872442055945
      vertex -3.002487770972249 96.73545753477748 -7.0059309020566864
    endloop
  endfacet
  facet normal 0.0000036486528992421344 0.9808319850786785 -0.19485537465850447
    outer loop
      vertex -3.002487338933261 96.73545753411123 -7.005930905405909
      vertex -3.002487377812248 96.73545753421364 -7.005930904891175
      vertex -22.702254248593736 96.79698875591549 -6.696573706916606
    endloop
  endfacet
  facet normal 0.0000035744615324753024 0.9808310821644043 -0.19485991955101192
    outer loop
      vertex -3.0024872836063397 96.73545753395575 -7.00593090618751
      vertex -3.002487338933261 96.73545753411123 -7.005930905405909
      vertex -22.702254248593736 96.79698875591549 -6.696573706916606
    endloop
  endfacet
  facet normal -4.455224865352759e-8 0.9807826424124 -0.19510358362302935
    outer loop
      vertex -22.173250521276362 96.68827269084042 -7.243123990489306
      vertex -3.002487682832038 96.73545753507248 -7.0059309005737305
      vertex -3.002487770972249 96.73545753477748 -7.0059309020566864
    endloop
  endfacet
  facet normal 0.000003778463214536212 0.9808335648288846 -0.19484742259210283
    outer loop
      vertex -3.0024877249161843 96.73545753521145 -7.005930899875049
      vertex -19.201785554191577 96.78605521964423 -6.751543656338867
      vertex -3.002487377812248 96.73545753421364 -7.005930904891175
    endloop
  endfacet
  facet normal 0 0 -1
    outer loop
      vertex -22.702254248593736 95.30569268689912 -7.416746443057218
      vertex -22.702254248593736 96.6537356727035 -7.416746443057218
      vertex 22.75 96.6537356727035 -7.416746443057218
    endloop
  endfacet
  facet normal 0.000008068391000622816 0.9808888657798926 -0.19456883852235166
    outer loop
      vertex -22.702254248593736 96.79883835277484 -6.687263712658773
      vertex -22.702254248593736 96.79916022673947 -6.685641034585065
      vertex 22.75 96.66622593488907 -7.353923999034798
    endloop
  endfacet
  facet normal -1.6015560775642154e-14 0.980784003983286 -0.1950967389028166
    outer loop
      vertex -22.702254248593736 96.80022737438506 -6.680276304520561
      vertex 22.75 96.66622593488907 -7.353923999034798
      vertex -22.702254248593736 96.79916022673947 -6.685641034585065
    endloop
  endfacet
  facet normal 1.2505359142876587e-14 0.9807840039836541 -0.19509673890096546
    outer loop
      vertex -20.890560946929305 96.79624062394866 -6.700318367129588
      vertex 22.75 96.66622593488907 -7.353923999034798
      vertex -22.702254248593736 96.80022737438506 -6.680276304520561
    endloop
  endfacet
  facet normal -9.297052393365782e-9 0.9807874202890422 -0.19507956377531036
    outer loop
      vertex -3.0024877249161843 96.73545753521145 -7.005930899875049
      vertex -3.002487682832038 96.73545753507248 -7.0059309005737305
      vertex -13.892343523122408 96.76389928560233 -6.862935848532469
    endloop
  endfacet
  facet normal 1.623465337048498e-14 0.9807840039837018 -0.1950967389007261
    outer loop
      vertex -20.890560946929305 96.79624062394866 -6.700318367129588
      vertex -18.950761852838 96.79211709910285 -6.721048017617624
      vertex 22.75 96.66622593488907 -7.353923999034798
    endloop
  endfacet
  facet normal 1.1648508420333957e-16 0.9807840039835005 -0.19509673890173773
    outer loop
      vertex -14.13062036716978 96.82322044098218 -6.564686305180053
      vertex -22.702254248593736 96.83111488370717 -6.524999618520814
      vertex 22.75 96.83111488370555 -6.524999618528931
    endloop
  endfacet
  facet normal -2.1449191385628134e-16 0.9807827357705544 -0.19510311431247582
    outer loop
      vertex -6.210525680310225 96.72464140597276 -7.06030354719316
      vertex 18.022188421517313 96.67631671211934 -7.303231629657925
      vertex -22.702254248593736 96.6537356727035 -7.416746443057218
    endloop
  endfacet
  facet normal 3.2050605128009884e-7 0.9807791157403375 -0.19512131131042262
    outer loop
      vertex -6.210525680310225 96.72464140597276 -7.06030354719316
      vertex -3.002487770972249 96.73545753477748 -7.0059309020566864
      vertex -3.0024877650740764 96.73545753476753 -7.0059309021066785
    endloop
  endfacet
  facet normal 0.000008008544862853024 0.9808903032152072 -0.19456159177556648
    outer loop
      vertex -3.002487377812248 96.73545753421364 -7.005930904891175
      vertex -3.0024876807503826 96.73545753507248 -7.0059309005737305
      vertex -3.002487685891683 96.73545753508947 -7.005930900488327
    endloop
  endfacet
  facet normal 0.000002324621171147857 0.9808143346207837 -0.1949441997008008
    outer loop
      vertex -3.002487377812248 96.73545753421364 -7.005930904891175
      vertex -3.002487685891683 96.73545753508947 -7.005930900488327
      vertex -3.0024877249161843 96.73545753521145 -7.005930899875049
    endloop
  endfacet
  facet normal 3.020440692286129e-7 0.9807787003728291 -0.19512339914754767
    outer loop
      vertex -3.002487770972249 96.73545753477748 -7.0059309020566864
      vertex -3.002487682832038 96.73545753507248 -7.0059309005737305
      vertex -3.0024877650740764 96.73545753476753 -7.0059309021066785
    endloop
  endfacet
  facet normal -0.000001004138081448542 0.9807921087711964 -0.19505599034928783
    outer loop
      vertex -3.0024877418662257 96.73545753479738 -7.005930901956741
      vertex -3.0024877650740764 96.73545753476753 -7.0059309021066785
      vertex -3.002487682832038 96.73545753507248 -7.0059309005737305
    endloop
  endfacet
  facet normal -3.5060894109158915e-7 0.9807742128354426 -0.19514595419043407
    outer loop
      vertex -3.002487338933261 96.73545753411123 -7.005930905405909
      vertex -3.0024877650740764 96.73545753476753 -7.0059309021066785
      vertex -3.002487377812248 96.73545753421364 -7.005930904891175
    endloop
  endfacet
  facet normal -3.765717930841228e-7 0.9807735217256367 -0.1951494275721821
    outer loop
      vertex -3.0024877418662257 96.73545753479738 -7.005930901956741
      vertex -3.002487377812248 96.73545753421364 -7.005930904891175
      vertex -3.0024877650740764 96.73545753476753 -7.0059309021066785
    endloop
  endfacet
  facet normal -1.648862201863963e-8 0.9807824718766601 -0.19510444090155465
    outer loop
      vertex -3.0024872836063397 96.73545753395575 -7.00593090618751
      vertex -3.0024877650740764 96.73545753476753 -7.0059309021066785
      vertex -3.002487338933261 96.73545753411123 -7.005930905405909
    endloop
  endfacet
  facet normal 4.530289996705989e-8 0.9807835380609693 -0.19509908115776786
    outer loop
      vertex -3.0024877418662257 96.73545753479738 -7.005930901956741
      vertex -3.002487682832038 96.73545753507248 -7.0059309005737305
      vertex -3.002487377812248 96.73545753421364 -7.005930904891175
    endloop
  endfacet
  facet normal 0 0.9807829256276135 -0.19510215989921584
    outer loop
      vertex -3.002487377812248 96.73545753421364 -7.005930904891175
      vertex -3.002487682832038 96.73545753507248 -7.0059309005737305
      vertex -3.0024876807503826 96.73545753507248 -7.0059309005737305
    endloop
  endfacet
  facet normal 0.000002284366278212292 0.9808138448573909 -0.19494666381049908
    outer loop
      vertex -3.0024877249161843 96.73545753521145 -7.005930899875049
      vertex -3.002487685891683 96.73545753508947 -7.005930900488327
      vertex -3.002487682832038 96.73545753507248 -7.0059309005737305
    endloop
  endfacet
  facet normal 0 0.9807981938156412 -0.1950253906751015
    outer loop
      vertex -3.0024876807503826 96.73545753507248 -7.0059309005737305
      vertex -3.002487682832038 96.73545753507248 -7.0059309005737305
      vertex -3.002487685891683 96.73545753508947 -7.005930900488327
    endloop
  endfacet
  facet normal 2.3115780439540477e-16 0.9807840039834802 -0.19509673890184015
    outer loop
      vertex -18.950761852838 96.79211709910285 -6.721048017617624
      vertex -14.13062036716978 96.82322044098218 -6.564686305180053
      vertex 22.75 96.83111488370555 -6.524999618528931
    endloop
  endfacet
  facet normal -6.918670417428444e-16 0.9807827357705482 -0.1951031143125061
    outer loop
      vertex -6.210525680310225 96.72464140597276 -7.06030354719316
      vertex -3.0024877650740764 96.73545753476753 -7.0059309021066785
      vertex 4.892153658805675 96.71325050644155 -7.117565562945599
    endloop
  endfacet
  facet normal 0.000003578919782862834 0.9808311364222235 -0.19485964644297402
    outer loop
      vertex -3.0024872836063397 96.73545753395575 -7.00593090618751
      vertex -22.702254248593736 96.79883835277484 -6.687263712658773
      vertex 22.75 96.66456503583306 -7.362297166102756
    endloop
  endfacet
  facet normal -1.1981343093898708e-8 0.9807825736355569 -0.19510392936282303
    outer loop
      vertex -3.0024872836063397 96.73545753395575 -7.00593090618751
      vertex 4.892153658805675 96.71325050644155 -7.117565562945599
      vertex -3.0024877650740764 96.73545753476753 -7.0059309021066785
    endloop
  endfacet
  facet normal 0 0 -1
    outer loop
      vertex -22.60112712429687 97.03110642082433 6.583253556942782
      vertex -22.46137287570313 97.07651532882466 6.583253556942782
      vertex -22.648265442765474 96.89055591597374 6.583253556942782
    endloop
  endfacet
  facet normal 1.1177216852309658e-16 1 1.4429483249292535e-13
    outer loop
      vertex -22.702254248593736 96.8311148837053 6.475000381469727
      vertex 22.75 96.8311148837053 6.43979262708339
      vertex -22.702254248593736 96.83111488370717 -6.524999618520814
    endloop
  endfacet
  facet normal 2.417887865651031e-16 0.8765515079563001 -0.48130806548356964
    outer loop
      vertex -22.702254248593736 96.8311148837053 6.475000381469727
      vertex -22.702254248593736 96.85180739512225 6.512685293455796
      vertex 22.647359116104674 96.89055591597374 6.583253556942782
    endloop
  endfacet
  facet normal 0 0.8765515079563657 -0.4813080654834504
    outer loop
      vertex -22.648265442765474 96.89055591597374 6.583253556942782
      vertex 22.647359116104674 96.89055591597374 6.583253556942782
      vertex -22.702254248593736 96.85180739512225 6.512685293455796
    endloop
  endfacet
  facet normal 0 0 -1
    outer loop
      vertex -22.46137287570313 97.07651532882466 6.583253556942782
      vertex 22.53862712429687 97.07651532882466 6.583253556942782
      vertex -22.648265442765474 96.89055591597374 6.583253556942782
    endloop
  endfacet
  facet normal 0 0 -1
    outer loop
      vertex -22.702254248593736 43.11888206453689 -7.416746443057218
      vertex 22.75 44.75 -7.416746443057218
      vertex 22.75 43.11888206453689 -7.416746443057218
    endloop
  endfacet
  facet normal 0 -1 0
    outer loop
      vertex 22.75 43.11888206453689 -7.416746443057218
      vertex 22.75 43.11888206453689 -6.5
      vertex -22.702254248593736 43.11888206453689 -7.416746443057218
    endloop
  endfacet
  facet normal 0 -1 0
    outer loop
      vertex 22.75 43.11888206453689 -6.5
      vertex 22.65473724370179 43.11888206453689 -6.3350000660224435
      vertex -22.702254248593736 43.11888206453689 -7.416746443057218
    endloop
  endfacet
  facet normal 0 -1 0
    outer loop
      vertex 22.65473724370179 43.11888206453689 -6.3350000660224435
      vertex 22.65473724370179 43.11888206453689 6.3
      vertex -22.702254248593736 43.11888206453689 6.414519288570087
    endloop
  endfacet
  facet normal 0 -1 0
    outer loop
      vertex -22.674822966900592 43.11888206453689 6.4617412254456275
      vertex 22.65473724370179 43.11888206453689 6.3
      vertex 22.631435940341138 43.11888206453689 6.340359041303224
    endloop
  endfacet
  facet normal 0 -1 0
    outer loop
      vertex 22.631435940341138 43.11888206453689 6.340359041303224
      vertex 22.65771724153288 43.11888206453689 6.403012701892219
      vertex -22.65629355176824 43.11888206453689 6.474
    endloop
  endfacet
  facet normal 0 -1 0
    outer loop
      vertex 22.65771724153288 43.11888206453689 6.403012701892219
      vertex 22.616732705861306 43.11888206453689 6.474
      vertex -22.65629355176824 43.11888206453689 6.474
    endloop
  endfacet
  facet normal 0 -0.876551507956313 -0.48130806548354665
    outer loop
      vertex -22.65629355176824 43.11888206453689 6.474
      vertex 22.616732705861306 43.11888206453689 6.474
      vertex 22.552929717390697 43.08299746502156 6.5393525300598645
    endloop
  endfacet
  facet normal 0 0 -1
    outer loop
      vertex -22.702254248593736 95.30569268689912 -7.416746443057218
      vertex 22.75 95.57488033541418 -7.416746443057218
      vertex 22.75 44.75 -7.416746443057218
    endloop
  endfacet
  facet normal -8.626862213493689e-16 0.980782735770542 -0.19510311431253793
    outer loop
      vertex -6.210525680310225 96.72464140597276 -7.06030354719316
      vertex 4.892153658805675 96.71325050644155 -7.117565562945599
      vertex 18.022188421517313 96.67631671211934 -7.303231629657925
    endloop
  endfacet
  facet normal 0 0.9807827357705396 -0.1951031143125498
    outer loop
      vertex 18.022188421517313 96.67631671211934 -7.303231629657925
      vertex 22.75 96.6537356727035 -7.416746443057218
      vertex -22.702254248593736 96.6537356727035 -7.416746443057218
    endloop
  endfacet
  facet normal 0 0 -1
    outer loop
      vertex -22.702254248593736 95.30569268689912 -7.416746443057218
      vertex 22.75 96.6537356727035 -7.416746443057218
      vertex 22.75 95.57488033541418 -7.416746443057218
    endloop
  endfacet
  facet normal 0.00000806839090562264 0.9808888657786566 -0.1945688385285828
    outer loop
      vertex 22.75 96.66622593488907 -7.353923999034798
      vertex 22.75 96.66456503583306 -7.362297166102756
      vertex -22.702254248593736 96.79883835277484 -6.687263712658773
    endloop
  endfacet
  facet normal 0.0000035789197842181825 0.9808311364222421 -0.19485964644288015
    outer loop
      vertex -3.0024872836063397 96.73545753395575 -7.00593090618751
      vertex 22.75 96.66456503583306 -7.362297166102756
      vertex 4.892153658805675 96.71325050644155 -7.117565562945599
    endloop
  endfacet
  facet normal -1.4136085483050445e-16 0.9807840039834953 -0.1950967389017639
    outer loop
      vertex -18.950761852838 96.79211709910285 -6.721048017617624
      vertex 22.75 96.83111488370555 -6.524999618528931
      vertex 22.75 96.66622593488907 -7.353923999034798
    endloop
  endfacet
  facet normal 3.564262024657032e-14 1 1.9730002612282906e-14
    outer loop
      vertex -22.702254248593736 96.83111488370717 -6.524999618520814
      vertex 22.75 96.8311148837053 6.43979262708339
      vertex 22.75 96.83111488370555 -6.524999618528931
    endloop
  endfacet
  facet normal 9.863996516816125e-8 0.9807840720054707 -0.19509639694355724
    outer loop
      vertex 4.892153658805675 96.71325050644155 -7.117565562945599
      vertex 22.75 96.66301773615152 -7.370085539594868
      vertex 18.022188421517313 96.67631671211934 -7.303231629657925
    endloop
  endfacet
  facet normal 0.0000035789197840627075 0.98083113642224 -0.1948596464428914
    outer loop
      vertex 4.892153658805675 96.71325050644155 -7.117565562945599
      vertex 22.75 96.66456503583306 -7.362297166102756
      vertex 22.75 96.66301773615152 -7.370085539594868
    endloop
  endfacet
  facet normal 2.5200279710668105e-15 0.9807827357705596 -0.19510311431244884
    outer loop
      vertex 18.022188421517313 96.67631671211934 -7.303231629657925
      vertex 22.75 96.66301773615152 -7.370085539594868
      vertex 22.75 96.6537356727035 -7.416746443057218
    endloop
  endfacet
  facet normal 0 0.8765515079563428 -0.481308065483492
    outer loop
      vertex -22.702254248593736 96.8311148837053 6.475000381469727
      vertex 22.647359116104674 96.89055591597374 6.583253556942782
      vertex 22.729672793527488 96.8311148837053 6.475000381469727
    endloop
  endfacet
  facet normal 0 1 0
    outer loop
      vertex -22.702254248593736 96.8311148837053 6.475000381469727
      vertex 22.729672793527488 96.8311148837053 6.475000381469727
      vertex 22.75 96.8311148837053 6.43979262708339
    endloop
  endfacet
  facet normal 0 0 -1
    outer loop
      vertex 22.625 96.95763326428776 6.583253556942782
      vertex 22.647359116104674 96.89055591597374 6.583253556942782
      vertex -22.648265442765474 96.89055591597374 6.583253556942782
    endloop
  endfacet
  facet normal 0 0 -1
    outer loop
      vertex 22.625 96.95763326428776 6.583253556942782
      vertex -22.648265442765474 96.89055591597374 6.583253556942782
      vertex 22.53862712429687 97.07651532882466 6.583253556942782
    endloop
  endfacet
  facet normal -1 0 0
    outer loop
      vertex -22.702254248593736 43.1866074871388 -6.741514998502304
      vertex -22.702254248593736 43.35299191101698 -6.649559390558727
      vertex -22.702254248593736 43.11888206453689 -7.416746443057218
    endloop
  endfacet
  facet normal -1 0 0
    outer loop
      vertex -22.702254248593736 43.396946313073116 -6.67377034421284
      vertex -22.702254248593736 43.11888206453689 -7.416746443057218
      vertex -22.702254248593736 43.35299191101698 -6.649559390558727
    endloop
  endfacet
  facet normal -1 0 0
    outer loop
      vertex -22.702254248593736 43.396946313073116 -6.67377034421284
      vertex -22.702254248593736 44.603053686926884 -6.568414868911625
      vertex -22.702254248593736 43.11888206453689 -7.416746443057218
    endloop
  endfacet
  facet normal -1 0 0
    outer loop
      vertex -22.702254248593736 43.396946313073116 -6.67377034421284
      vertex -22.702254248593736 43.35299191101698 -6.649559390558727
      vertex -22.702254248593736 44.603053686926884 -6.5
    endloop
  endfacet
  facet normal -1 0 0
    outer loop
      vertex -22.702254248593736 44.603053686926884 -6.568414868911625
      vertex -22.702254248593736 44.62316031241877 -6.568414868911625
      vertex -22.702254248593736 43.11888206453689 -7.416746443057218
    endloop
  endfacet
  facet normal -1 0 0
    outer loop
      vertex -22.702254248593736 43.396946313073116 -6.67377034421284
      vertex -22.702254248593736 44.603053686926884 -6.5
      vertex -22.702254248593736 44.603053686926884 -6.568414868911625
    endloop
  endfacet
  facet normal -1 0 0
    outer loop
      vertex -22.702254248593736 44.603053686926884 -6.568414868911625
      vertex -22.702254248593736 44.603053686926884 -6.5
      vertex -22.702254248593736 44.62316031241877 -6.568414868911625
    endloop
  endfacet
  facet normal -1 0 0
    outer loop
      vertex -22.702254248593736 43.1866074871388 -6.741514998502304
      vertex -22.702254248593736 43.11888206453689 -7.416746443057218
      vertex -22.702254248593736 43.396946313073116 5.250680232116863
    endloop
  endfacet
  facet normal -1 0 0
    outer loop
      vertex -22.702254248593736 43.1866074871388 -6.741514998502304
      vertex -22.702254248593736 43.396946313073116 5.250680232116863
      vertex -22.702254248593736 43.35299191101698 -6.649559390558727
    endloop
  endfacet
  facet normal -1 0 0
    outer loop
      vertex -22.702254248593736 43.35299191101698 -6.649559390558727
      vertex -22.702254248593736 43.396946313073116 5.250680232116863
      vertex -22.702254248593736 44.603053686926884 -6.5
    endloop
  endfacet
  facet normal -1 0 0
    outer loop
      vertex -22.702254248593736 44.603053686926884 -6.5
      vertex -22.702254248593736 43.396946313073116 5.250680232116863
      vertex -22.702254248593736 44.896946313073116 -6.505763290680727
    endloop
  endfacet
  facet normal -1 0 0
    outer loop
      vertex -22.702254248593736 44.896946313073116 -6.505763290680727
      vertex -22.702254248593736 43.396946313073116 5.250680232116863
      vertex -22.702254248593736 44.896946313073116 -6.5
    endloop
  endfacet
  facet normal -0.3090169943749682 0.9510565162951469 0
    outer loop
      vertex -22.702254248593736 44.896946313073116 -6.5
      vertex -22.702254248593736 44.896946313073116 6.116705635901301
      vertex -22.60112712429687 44.92980450758056 -6.283493649053891
    endloop
  endfacet
  facet normal -0.3090169943749517 0.9510565162951521 2.9079441587205095e-16
    outer loop
      vertex -22.60112712429687 44.92980450758056 -6.283493649053891
      vertex -22.46137287570313 44.975213415580896 5.9615897191037455
      vertex -22.422745751406264 44.98776412907379 -6.283493649053891
    endloop
  endfacet
  facet normal -1 0 0
    outer loop
      vertex -22.702254248593736 43.396946313073116 5.250680232116863
      vertex -22.702254248593736 43.11888206453689 -7.416746443057218
      vertex -22.702254248593736 43.356037819241145 5.3967406890092064
    endloop
  endfacet
  facet normal -1 0 0
    outer loop
      vertex -22.702254248593736 43.356037819241145 5.3967406890092064
      vertex -22.702254248593736 43.11888206453689 -7.416746443057218
      vertex -22.702254248593736 43.11888206453689 6.3
    endloop
  endfacet
  facet normal -1 0 0
    outer loop
      vertex -22.702254248593736 44.62316031241877 -6.568414868911625
      vertex -22.702254248593736 90.77391163849241 -7.416746443057218
      vertex -22.702254248593736 43.11888206453689 -7.416746443057218
    endloop
  endfacet
  facet normal -1 0 0
    outer loop
      vertex -22.702254248593736 44.62316031241877 -6.568414868911625
      vertex -22.702254248593736 44.603053686926884 -6.5
      vertex -22.702254248593736 90.77391163849241 -7.416746443057218
    endloop
  endfacet
  facet normal -1 0 0
    outer loop
      vertex -22.702254248593736 44.603053686926884 -6.5
      vertex -22.702254248593736 44.896946313073116 -6.505763290680727
      vertex -22.702254248593736 90.77391163849241 -7.416746443057218
    endloop
  endfacet
  facet normal -1 0 0
    outer loop
      vertex -22.702254248593736 44.896946313073116 -6.505763290680727
      vertex -22.702254248593736 44.896946313073116 -6.5
      vertex -22.702254248593736 95.30305368692689 -6.5
    endloop
  endfacet
  facet normal -0.9060374296629745 0 0.42319756148837906
    outer loop
      vertex -22.702254248593736 44.896946313073116 -6.5
      vertex -22.60112712429687 44.92980450758056 -6.283493649053891
      vertex -22.702254248593736 95.30305368692689 -6.5
    endloop
  endfacet
  facet normal 0 0 1
    outer loop
      vertex -22.60112712429687 44.92980450758056 -6.283493649053891
      vertex -22.422745751406264 44.98776412907379 -6.283493649053891
      vertex -22.60112712429687 95.27019549241945 -6.283493649053891
    endloop
  endfacet
  facet normal 0 1 0
    outer loop
      vertex -22.422745751406264 44.98776412907379 -6.283493649053891
      vertex -22.422745751406264 44.98776412907379 5.968835876917389
      vertex 22.577254248593736 44.98776412907379 -6.283493649053891
    endloop
  endfacet
  facet normal 0 0 1
    outer loop
      vertex -22.422745751406264 44.98776412907379 -6.283493649053891
      vertex 22.577254248593736 44.98776412907379 -6.283493649053891
      vertex -22.422745751406264 95.21223587092622 -6.283493649053891
    endloop
  endfacet
  facet normal -1 0 0
    outer loop
      vertex -22.702254248593736 44.896946313073116 -6.5
      vertex -22.702254248593736 43.396946313073116 5.250680232116863
      vertex -22.702254248593736 44.896946313073116 6.116705635901301
    endloop
  endfacet
  facet normal -0.3090169943749288 0.9510565162951597 0
    outer loop
      vertex -22.60112712429687 44.92980450758056 -6.283493649053891
      vertex -22.60112712429687 44.92980450758056 5.9615897191037455
      vertex -22.46137287570313 44.975213415580896 5.9615897191037455
    endloop
  endfacet
  facet normal -0.3090169943750351 0.9510565162951251 0
    outer loop
      vertex -22.422745751406264 44.98776412907379 -6.283493649053891
      vertex -22.46137287570313 44.975213415580896 5.9615897191037455
      vertex -22.422745751406264 44.98776412907379 5.968835876917389
    endloop
  endfacet
  facet normal -0.30901699437496816 0.9510565162951468 0
    outer loop
      vertex -22.60112712429687 44.92980450758056 -6.283493649053891
      vertex -22.702254248593736 44.896946313073116 6.116705635901301
      vertex -22.60112712429687 44.92980450758056 5.9615897191037455
    endloop
  endfacet
  facet normal -1 0 0
    outer loop
      vertex -22.702254248593736 43.396946313073116 5.250680232116863
      vertex -22.702254248593736 43.356037819241145 5.3967406890092064
      vertex -22.702254248593736 44.896946313073116 6.116705635901301
    endloop
  endfacet
  facet normal -1 0 0
    outer loop
      vertex -22.702254248593736 43.356037819241145 5.3967406890092064
      vertex -22.702254248593736 43.11888206453689 6.3
      vertex -22.702254248593736 44.896946313073116 6.116705635901301
    endloop
  endfacet
  facet normal -0.8304753217246124 0.2785277095759084 -0.4824241443012568
    outer loop
      vertex -22.60112712429687 44.92980450758056 5.9615897191037455
      vertex -22.702254248593736 44.896946313073116 6.116705635901301
      vertex -22.60112712429687 45.14094830789653 6.0834936490538905
    endloop
  endfacet
  facet normal -0.16035745659091905 0.4935295042131997 -0.8548181763315312
    outer loop
      vertex -22.60112712429687 44.92980450758056 5.9615897191037455
      vertex -22.60112712429687 45.14094830789653 6.0834936490538905
      vertex -22.46137287570313 45.18635721589686 6.0834936490538905
    endloop
  endfacet
  facet normal -0.160357456590919 0.4935295042131997 -0.8548181763315312
    outer loop
      vertex -22.60112712429687 44.92980450758056 5.9615897191037455
      vertex -22.46137287570313 45.18635721589686 6.0834936490538905
      vertex -22.46137287570313 44.975213415580896 5.9615897191037455
    endloop
  endfacet
  facet normal -2.7630035025393586e-16 0.500000000000004 -0.8660254037844363
    outer loop
      vertex -22.46137287570313 44.975213415580896 5.9615897191037455
      vertex -22.46137287570313 45.18635721589686 6.0834936490538905
      vertex -22.422745751406264 44.98776412907379 5.968835876917389
    endloop
  endfacet
  facet normal -0.9060374296629816 0 0.42319756148836407
    outer loop
      vertex -22.679855482086708 43.1193273433691 6.347954248040265
      vertex -22.702254248593736 43.15842648295655 6.3
      vertex -22.702254248593736 43.11888206453689 6.3
    endloop
  endfacet
  facet normal -0.9060374296629891 2.0744761999900004e-12 0.4231975614883483
    outer loop
      vertex -22.679855482086708 43.1193273433691 6.347954248040265
      vertex -22.702254248593736 43.11888206453689 6.3
      vertex -22.68046835582093 43.11888206453689 6.346642126720592
    endloop
  endfacet
  facet normal -0.40370569363896797 -0.7923170354678857 -0.45744445371089687
    outer loop
      vertex -22.679855482086708 43.1193273433691 6.347954248040265
      vertex -22.702254248593736 43.11888206453689 6.368492941858614
      vertex -22.702254248593736 43.15842648295655 6.3
    endloop
  endfacet
  facet normal -0.27998096330538347 -0.8616928014883235 0.4231975614884783
    outer loop
      vertex -22.679855482086708 43.1193273433691 6.347954248040265
      vertex -22.68046835582093 43.11888206453689 6.346642126720592
      vertex -22.678768836239463 43.11888206453689 6.347766502598143
    endloop
  endfacet
  facet normal -0.40370569363871106 -0.7923170354681749 -0.457444453710623
    outer loop
      vertex -22.679855482086708 43.1193273433691 6.347954248040265
      vertex -22.678768836239463 43.11888206453689 6.347766502598143
      vertex -22.702254248593736 43.11888206453689 6.368492941858614
    endloop
  endfacet
  facet normal -1 0 0
    outer loop
      vertex -22.702254248593736 43.15842648295655 6.3
      vertex -22.702254248593736 44.896946313073116 6.116705635901301
      vertex -22.702254248593736 43.11888206453689 6.3
    endloop
  endfacet
  facet normal -0.27998096330564665 -0.8616928014882886 0.4231975614883751
    outer loop
      vertex -22.60112712429687 43.172425228325686 6.619519052838329
      vertex -22.674822966900592 43.11888206453689 6.4617412254456275
      vertex -22.65629355176824 43.11888206453689 6.474
    endloop
  endfacet
  facet normal -0.2799809633056562 -0.8616928014882846 0.42319756148837695
    outer loop
      vertex -22.60112712429687 43.172425228325686 6.619519052838329
      vertex -22.65629355176824 43.11888206453689 6.474
      vertex -22.447070282609303 43.08299746502156 6.539352530059864
    endloop
  endfacet
  facet normal -0.2799809633056339 -0.8616928014882757 0.42319756148841
    outer loop
      vertex -22.46137287570313 43.12701632032535 6.619519052838329
      vertex -22.60112712429687 43.172425228325686 6.619519052838329
      vertex -22.447070282609303 43.08299746502156 6.539352530059864
    endloop
  endfacet
  facet normal -1 0 0
    outer loop
      vertex -22.702254248593736 43.15842648295655 6.3
      vertex -22.702254248593736 45.21442146443309 6.3
      vertex -22.702254248593736 44.896946313073116 6.116705635901301
    endloop
  endfacet
  facet normal -0.8304753217246125 0.2785277095759085 -0.4824241443012567
    outer loop
      vertex -22.702254248593736 44.896946313073116 6.116705635901301
      vertex -22.702254248593736 45.21442146443309 6.3
      vertex -22.60112712429687 45.14094830789653 6.0834936490538905
    endloop
  endfacet
  facet normal -1 0 0
    outer loop
      vertex -22.702254248593736 43.15842648295655 6.3
      vertex -22.702254248593736 43.11888206453689 6.368492941858614
      vertex -22.702254248593736 50.02715530206464 10.40301270189222
    endloop
  endfacet
  facet normal -1 0 0
    outer loop
      vertex -22.702254248593736 50.02715530206464 10.40301270189222
      vertex -22.702254248593736 43.11888206453689 6.368492941858614
      vertex -22.702254248593736 43.11888206453689 6.414519288570087
    endloop
  endfacet
  facet normal -0.8304753217245987 -0.2785277095759163 0.48242414430127595
    outer loop
      vertex -22.702254248593736 50.02715530206464 10.40301270189222
      vertex -22.702254248593736 43.11888206453689 6.414519288570087
      vertex -22.674822966900592 43.11888206453689 6.4617412254456275
    endloop
  endfacet
  facet normal -1 0 0
    outer loop
      vertex -22.702254248593736 43.15842648295655 6.3
      vertex -22.702254248593736 50.02715530206464 10.40301270189222
      vertex -22.702254248593736 45.21442146443309 6.3
    endloop
  endfacet
  facet normal -0.8304753217246201 -0.2785277095759004 0.4824241443012483
    outer loop
      vertex -22.60112712429687 43.172425228325686 6.619519052838329
      vertex -22.60112712429687 50.1006284586012 10.61951905283833
      vertex -22.674822966900592 43.11888206453689 6.4617412254456275
    endloop
  endfacet
  facet normal -0.16035745659091769 -0.4935295042131957 0.8548181763315337
    outer loop
      vertex -22.46137287570313 43.12701632032535 6.619519052838329
      vertex -22.60112712429687 50.1006284586012 10.61951905283833
      vertex -22.60112712429687 43.172425228325686 6.619519052838329
    endloop
  endfacet
  facet normal -0.830475321724614 0.27852770957590467 -0.48242414430125624
    outer loop
      vertex -22.60112712429687 45.14094830789653 6.0834936490538905
      vertex -22.702254248593736 45.21442146443309 6.3
      vertex -22.60112712429687 50.747574771674316 9.32048094716167
    endloop
  endfacet
  facet normal -0.16035745659091757 0.49352950421319536 -0.854818176331534
    outer loop
      vertex -22.60112712429687 45.14094830789653 6.0834936490538905
      vertex -22.46137287570313 50.79298367967465 9.32048094716167
      vertex -22.46137287570313 45.18635721589686 6.0834936490538905
    endloop
  endfacet
  facet normal -0.16035745659091646 0.49352950421319547 -0.8548181763315341
    outer loop
      vertex -22.60112712429687 45.14094830789653 6.0834936490538905
      vertex -22.60112712429687 50.747574771674316 9.32048094716167
      vertex -22.46137287570313 50.79298367967465 9.32048094716167
    endloop
  endfacet
  facet normal -0.8304753217246152 -0.2785277095759042 0.4824241443012545
    outer loop
      vertex -22.702254248593736 50.02715530206464 10.40301270189222
      vertex -22.674822966900592 43.11888206453689 6.4617412254456275
      vertex -22.60112712429687 50.1006284586012 10.61951905283833
    endloop
  endfacet
  facet normal -0.16035745659091766 -0.4935295042131957 0.8548181763315337
    outer loop
      vertex -22.46137287570313 43.12701632032535 6.619519052838329
      vertex -22.46137287570313 50.05521955060087 10.61951905283833
      vertex -22.60112712429687 50.1006284586012 10.61951905283833
    endloop
  endfacet
  facet normal -0.8304753217246158 0.27852770957590345 -0.48242414430125397
    outer loop
      vertex -22.702254248593736 45.21442146443309 6.3
      vertex -22.702254248593736 50.821047928210874 9.53698729810778
      vertex -22.60112712429687 50.747574771674316 9.32048094716167
    endloop
  endfacet
  facet normal -1 0 0
    outer loop
      vertex -22.702254248593736 45.21442146443309 6.3
      vertex -22.702254248593736 50.02715530206464 10.40301270189222
      vertex -22.702254248593736 50.821047928210874 9.53698729810778
    endloop
  endfacet
  facet normal -0.27998096330566413 0.8616928014882796 -0.42319756148838167
    outer loop
      vertex -22.60112712429687 50.747574771674316 9.32048094716167
      vertex -22.702254248593736 50.821047928210874 9.53698729810778
      vertex -22.422745751406264 50.911865744211546 9.53698729810778
    endloop
  endfacet
  facet normal -0.2799809633056346 0.8616928014882779 -0.42319756148840476
    outer loop
      vertex -22.60112712429687 50.747574771674316 9.32048094716167
      vertex -22.422745751406264 50.911865744211546 9.53698729810778
      vertex -22.46137287570313 50.79298367967465 9.32048094716167
    endloop
  endfacet
  facet normal -0.40370569363889974 0.7923170354679062 0.4574444537109216
    outer loop
      vertex -22.702254248593736 50.821047928210874 9.53698729810778
      vertex -22.702254248593736 50.321047928210874 10.40301270189222
      vertex -22.60112712429687 50.747574771674316 9.75349364905389
    endloop
  endfacet
  facet normal -0.2708693124034706 0.8336500235101979 0.48130806548355026
    outer loop
      vertex -22.60112712429687 50.747574771674316 9.75349364905389
      vertex -22.46137287570313 50.29298367967465 10.61951905283833
      vertex -22.46137287570313 50.79298367967465 9.75349364905389
    endloop
  endfacet
  facet normal -0.2799809633056642 0.8616928014882796 0.4231975614883817
    outer loop
      vertex -22.702254248593736 50.821047928210874 9.53698729810778
      vertex -22.60112712429687 50.747574771674316 9.75349364905389
      vertex -22.422745751406264 50.911865744211546 9.53698729810778
    endloop
  endfacet
  facet normal -0.2799809633056346 0.861692801488278 0.4231975614884048
    outer loop
      vertex -22.422745751406264 50.911865744211546 9.53698729810778
      vertex -22.60112712429687 50.747574771674316 9.75349364905389
      vertex -22.46137287570313 50.79298367967465 9.75349364905389
    endloop
  endfacet
  facet normal -1 0 0
    outer loop
      vertex -22.702254248593736 50.821047928210874 9.53698729810778
      vertex -22.702254248593736 50.02715530206464 10.40301270189222
      vertex -22.702254248593736 50.321047928210874 10.40301270189222
    endloop
  endfacet
  facet normal -0.40370569363889963 0.7923170354679062 0.4574444537109216
    outer loop
      vertex -22.60112712429687 50.747574771674316 9.75349364905389
      vertex -22.702254248593736 50.321047928210874 10.40301270189222
      vertex -22.60112712429687 50.247574771674316 10.61951905283833
    endloop
  endfacet
  facet normal -0.27086931240347056 0.8336500235101979 0.48130806548355026
    outer loop
      vertex -22.60112712429687 50.747574771674316 9.75349364905389
      vertex -22.60112712429687 50.247574771674316 10.61951905283833
      vertex -22.46137287570313 50.29298367967465 10.61951905283833
    endloop
  endfacet
  facet normal -0.9060374296629753 0 0.42319756148837767
    outer loop
      vertex -22.702254248593736 50.02715530206464 10.40301270189222
      vertex -22.60112712429687 50.247574771674316 10.61951905283833
      vertex -22.702254248593736 50.321047928210874 10.40301270189222
    endloop
  endfacet
  facet normal -0.9060374296629752 0 0.4231975614883778
    outer loop
      vertex -22.702254248593736 50.02715530206464 10.40301270189222
      vertex -22.60112712429687 50.1006284586012 10.61951905283833
      vertex -22.60112712429687 50.247574771674316 10.61951905283833
    endloop
  endfacet
  facet normal 0 0 1
    outer loop
      vertex -22.46137287570313 50.05521955060087 10.61951905283833
      vertex -22.60112712429687 50.247574771674316 10.61951905283833
      vertex -22.60112712429687 50.1006284586012 10.61951905283833
    endloop
  endfacet
  facet normal 0 0.500000000000004 -0.8660254037844363
    outer loop
      vertex -22.422745751406264 44.98776412907379 5.968835876917389
      vertex -22.46137287570313 45.18635721589686 6.0834936490538905
      vertex 22.53862712429687 45.18635721589686 6.0834936490538905
    endloop
  endfacet
  facet normal -9.483849530038085e-18 -0.8765515079563021 0.4813080654835663
    outer loop
      vertex -22.46137287570313 43.12701632032535 6.619519052838329
      vertex -22.447070282609303 43.08299746502156 6.539352530059864
      vertex 22.552929717390697 43.08299746502156 6.5393525300598645
    endloop
  endfacet
  facet normal 0 -0.4999999999999998 0.8660254037844387
    outer loop
      vertex -22.46137287570313 43.12701632032535 6.619519052838329
      vertex 22.53862712429687 43.12701632032535 6.619519052838329
      vertex -22.46137287570313 50.05521955060087 10.61951905283833
    endloop
  endfacet
  facet normal 0 0.4999999999999994 -0.8660254037844389
    outer loop
      vertex -22.46137287570313 45.18635721589686 6.0834936490538905
      vertex -22.46137287570313 50.79298367967465 9.32048094716167
      vertex 22.53862712429687 50.79298367967465 9.32048094716167
    endloop
  endfacet
  facet normal 0 0.8765515079563064 -0.4813080654835582
    outer loop
      vertex -22.46137287570313 50.79298367967465 9.32048094716167
      vertex -22.422745751406264 50.911865744211546 9.53698729810778
      vertex 22.53862712429687 50.79298367967465 9.32048094716167
    endloop
  endfacet
  facet normal 0 0.8660254037844387 0.49999999999999967
    outer loop
      vertex -22.46137287570313 50.79298367967465 9.75349364905389
      vertex -22.46137287570313 50.29298367967465 10.61951905283833
      vertex 22.53862712429687 50.79298367967465 9.75349364905389
    endloop
  endfacet
  facet normal 0 0.8765515079563064 0.4813080654835582
    outer loop
      vertex -22.422745751406264 50.911865744211546 9.53698729810778
      vertex -22.46137287570313 50.79298367967465 9.75349364905389
      vertex 22.53862712429687 50.79298367967465 9.75349364905389
    endloop
  endfacet
  facet normal 0 0 1
    outer loop
      vertex -22.46137287570313 50.05521955060087 10.61951905283833
      vertex 22.53862712429687 50.05521955060087 10.61951905283833
      vertex -22.60112712429687 50.247574771674316 10.61951905283833
    endloop
  endfacet
  facet normal 0 0 1
    outer loop
      vertex -22.60112712429687 50.247574771674316 10.61951905283833
      vertex 22.53862712429687 50.29298367967465 10.61951905283833
      vertex -22.46137287570313 50.29298367967465 10.61951905283833
    endloop
  endfacet
  facet normal -1 0 0
    outer loop
      vertex -22.702254248593736 44.896946313073116 -6.505763290680727
      vertex -22.702254248593736 95.30305368692689 -6.5
      vertex -22.702254248593736 90.77391163849241 -7.416746443057218
    endloop
  endfacet
  facet normal -0.9060374296629745 0 0.42319756148837906
    outer loop
      vertex -22.60112712429687 44.92980450758056 -6.283493649053891
      vertex -22.60112712429687 95.27019549241945 -6.283493649053891
      vertex -22.702254248593736 95.30305368692689 -6.5
    endloop
  endfacet
  facet normal 0 0 1
    outer loop
      vertex -22.422745751406264 44.98776412907379 -6.283493649053891
      vertex -22.422745751406264 95.21223587092622 -6.283493649053891
      vertex -22.60112712429687 95.27019549241945 -6.283493649053891
    endloop
  endfacet
  facet normal -1 0 0
    outer loop
      vertex -22.702254248593736 95.30305368692689 -6.5
      vertex -22.702254248593736 95.30569268689912 -7.416746443057218
      vertex -22.702254248593736 90.77391163849241 -7.416746443057218
    endloop
  endfacet
  facet normal -1 0 0
    outer loop
      vertex -22.702254248593736 95.30569268689912 -7.416746443057218
      vertex -22.702254248593736 96.66903836591948 -7.33981985287995
      vertex -22.702254248593736 96.6537356727035 -7.416746443057218
    endloop
  endfacet
  facet normal -1 0 0
    outer loop
      vertex -22.702254248593736 95.30569268689912 -7.416746443057218
      vertex -22.702254248593736 96.67031433636033 -7.3333872442055945
      vertex -22.702254248593736 96.66903836591948 -7.33981985287995
    endloop
  endfacet
  facet normal -1 0 0
    outer loop
      vertex -22.702254248593736 95.59694631307312 -6.806668711294502
      vertex -22.702254248593736 96.67031433636033 -7.3333872442055945
      vertex -22.702254248593736 95.30569268689912 -7.416746443057218
    endloop
  endfacet
  facet normal -1 0 0
    outer loop
      vertex -22.702254248593736 95.59694631307312 -6.806668711294502
      vertex -22.702254248593736 96.6869706582242 -7.249669167111993
      vertex -22.702254248593736 96.67031433636033 -7.3333872442055945
    endloop
  endfacet
  facet normal -1 0 0
    outer loop
      vertex -22.702254248593736 95.59694631307312 -6.806668711294502
      vertex -22.702254248593736 96.78690870707423 -6.747252623712643
      vertex -22.702254248593736 96.6869706582242 -7.249669167111993
    endloop
  endfacet
  facet normal -1 0 0
    outer loop
      vertex -22.702254248593736 95.59694631307312 -6.806668711294502
      vertex -22.702254248593736 96.79698875591549 -6.696573706916606
      vertex -22.702254248593736 96.78690870707423 -6.747252623712643
    endloop
  endfacet
  facet normal -1 0 0
    outer loop
      vertex -22.702254248593736 95.59694631307312 -6.806668711294502
      vertex -22.702254248593736 96.79883835277484 -6.687263712658773
      vertex -22.702254248593736 96.79698875591549 -6.696573706916606
    endloop
  endfacet
  facet normal -1 0 0
    outer loop
      vertex -22.702254248593736 95.59694631307312 -6.806668711294502
      vertex -22.702254248593736 96.80022737438506 -6.680276304520561
      vertex -22.702254248593736 96.79916022673947 -6.685641034585065
    endloop
  endfacet
  facet normal -1 0 0
    outer loop
      vertex -22.702254248593736 95.59694631307312 -6.806668711294502
      vertex -22.702254248593736 96.79916022673947 -6.685641034585065
      vertex -22.702254248593736 96.79883835277484 -6.687263712658773
    endloop
  endfacet
  facet normal -1 0 0
    outer loop
      vertex -22.702254248593736 95.59694631307312 -6.806668711294502
      vertex -22.702254248593736 96.83111488370717 -6.524999618520814
      vertex -22.702254248593736 96.80022737438506 -6.680276304520561
    endloop
  endfacet
  facet normal -0.3090169943749061 -0.9510565162951671 -9.001373702617872e-16
    outer loop
      vertex -22.702254248593736 95.30305368692689 -6.5
      vertex -22.60112712429687 95.27019549241945 -6.283493649053891
      vertex -22.422745751406264 95.21223587092622 3.740511776651347
    endloop
  endfacet
  facet normal -0.3090169943749518 -0.9510565162951522 0
    outer loop
      vertex -22.60112712429687 95.27019549241945 -6.283493649053891
      vertex -22.422745751406264 95.21223587092622 -6.283493649053891
      vertex -22.422745751406264 95.21223587092622 3.740511776651347
    endloop
  endfacet
  facet normal -1 0 0
    outer loop
      vertex -22.702254248593736 95.30305368692689 -6.5
      vertex -22.702254248593736 95.59694631307312 3.740511776651347
      vertex -22.702254248593736 95.30569268689912 -7.416746443057218
    endloop
  endfacet
  facet normal -1 0 0
    outer loop
      vertex -22.702254248593736 95.59694631307312 -6.806668711294502
      vertex -22.702254248593736 95.30569268689912 -7.416746443057218
      vertex -22.702254248593736 96.8311148837053 6.475000381469727
    endloop
  endfacet
  facet normal -1 0 0
    outer loop
      vertex -22.702254248593736 95.59694631307312 -6.806668711294502
      vertex -22.702254248593736 96.8311148837053 6.475000381469727
      vertex -22.702254248593736 96.83111488370717 -6.524999618520814
    endloop
  endfacet
  facet normal -0.30901699437493585 -0.9510565162951573 0
    outer loop
      vertex -22.702254248593736 95.30305368692689 -6.5
      vertex -22.422745751406264 95.21223587092622 3.740511776651347
      vertex -22.702254248593736 95.30305368692689 3.740511776651347
    endloop
  endfacet
  facet normal -1 0 0
    outer loop
      vertex -22.702254248593736 95.30305368692689 -6.5
      vertex -22.702254248593736 95.30305368692689 3.740511776651347
      vertex -22.702254248593736 95.59694631307312 3.740511776651347
    endloop
  endfacet
  facet normal -1 0 0
    outer loop
      vertex -22.702254248593736 95.59694631307312 3.740511776651347
      vertex -22.702254248593736 96.8311148837053 6.475000381469727
      vertex -22.702254248593736 95.30569268689912 -7.416746443057218
    endloop
  endfacet
  facet normal 0 -1 0
    outer loop
      vertex -22.422745751406264 95.21223587092622 -6.283493649053891
      vertex 22.577254248593736 95.21223587092622 3.740511776651347
      vertex -22.422745751406264 95.21223587092622 3.740511776651347
    endloop
  endfacet
  facet normal -0.3090169943749359 -0.9510565162951574 1.4359321406381161e-15
    outer loop
      vertex -22.702254248593736 95.30305368692689 3.740511776651347
      vertex -22.422745751406264 95.21223587092622 3.740511776651347
      vertex -22.60112712429687 95.27019549241945 5.92736322179563
    endloop
  endfacet
  facet normal -1 0 0
    outer loop
      vertex -22.702254248593736 95.30305368692689 3.740511776651347
      vertex -22.702254248593736 95.30305368692689 6.082479138593194
      vertex -22.702254248593736 95.59694631307312 3.740511776651347
    endloop
  endfacet
  facet normal -0.3090169943749077 -0.9510565162951664 0
    outer loop
      vertex -22.702254248593736 95.30305368692689 3.740511776651347
      vertex -22.60112712429687 95.27019549241945 5.92736322179563
      vertex -22.702254248593736 95.30305368692689 6.082479138593194
    endloop
  endfacet
  facet normal -0.3090169943749725 -0.9510565162951454 -1.867791431055515e-15
    outer loop
      vertex -22.422745751406264 95.21223587092622 3.740511776651347
      vertex -22.46137287570313 95.2247865844191 5.927363221795638
      vertex -22.60112712429687 95.27019549241945 5.92736322179563
    endloop
  endfacet
  facet normal -0.30901699437487684 -0.9510565162951764 0
    outer loop
      vertex -22.422745751406264 95.21223587092622 3.740511776651347
      vertex -22.422745751406264 95.21223587092622 5.934609379609275
      vertex -22.46137287570313 95.2247865844191 5.927363221795638
    endloop
  endfacet
  facet normal -1 0 0
    outer loop
      vertex -22.702254248593736 95.59694631307312 3.740511776651347
      vertex -22.702254248593736 95.30305368692689 6.082479138593194
      vertex -22.702254248593736 95.30305368692689 7.237179676972445
    endloop
  endfacet
  facet normal -1 0 0
    outer loop
      vertex -22.702254248593736 95.59694631307312 3.740511776651347
      vertex -22.702254248593736 95.30305368692689 7.237179676972445
      vertex -22.702254248593736 96.8311148837053 6.475000381469727
    endloop
  endfacet
  facet normal -0.2799809633056486 -0.8616928014882991 -0.4231975614883527
    outer loop
      vertex -22.60112712429687 89.46242522832569 9.28048094716167
      vertex -22.422745751406264 89.29813425578847 9.496987298107781
      vertex -22.702254248593736 89.38895207178913 9.496987298107781
    endloop
  endfacet
  facet normal -0.27998096330559663 -0.861692801488296 -0.42319756148839305
    outer loop
      vertex -22.60112712429687 89.46242522832569 9.28048094716167
      vertex -22.46137287570313 89.41701632032536 9.28048094716167
      vertex -22.422745751406264 89.29813425578847 9.496987298107781
    endloop
  endfacet
  facet normal -0.2799809633056486 -0.8616928014882991 0.4231975614883527
    outer loop
      vertex -22.702254248593736 89.38895207178913 9.496987298107781
      vertex -22.422745751406264 89.29813425578847 9.496987298107781
      vertex -22.60112712429687 89.46242522832569 9.713493649053891
    endloop
  endfacet
  facet normal -0.2799809633055967 -0.861692801488296 0.42319756148839316
    outer loop
      vertex -22.422745751406264 89.29813425578847 9.496987298107781
      vertex -22.46137287570313 89.41701632032536 9.713493649053891
      vertex -22.60112712429687 89.46242522832569 9.713493649053891
    endloop
  endfacet
  facet normal -0.40370569363894776 -0.7923170354678875 0.4574444537109117
    outer loop
      vertex -22.702254248593736 89.38895207178913 9.496987298107781
      vertex -22.60112712429687 89.46242522832569 9.713493649053891
      vertex -22.60112712429687 89.96242522832569 10.579519052838329
    endloop
  endfacet
  facet normal -0.2708693124034312 -0.833650023510207 0.48130806548355654
    outer loop
      vertex -22.60112712429687 89.46242522832569 9.713493649053891
      vertex -22.46137287570313 89.41701632032536 9.713493649053891
      vertex -22.60112712429687 89.96242522832569 10.579519052838329
    endloop
  endfacet
  facet normal -0.40370569363894765 -0.7923170354678875 0.4574444537109117
    outer loop
      vertex -22.702254248593736 89.38895207178913 9.496987298107781
      vertex -22.60112712429687 89.96242522832569 10.579519052838329
      vertex -22.702254248593736 89.88895207178913 10.363012701892218
    endloop
  endfacet
  facet normal -0.27086931240343126 -0.833650023510207 0.48130806548355654
    outer loop
      vertex -22.46137287570313 89.41701632032536 9.713493649053891
      vertex -22.46137287570313 89.91701632032536 10.579519052838329
      vertex -22.60112712429687 89.96242522832569 10.579519052838329
    endloop
  endfacet
  facet normal -0.9060374296629753 0 0.42319756148837767
    outer loop
      vertex -22.702254248593736 89.88895207178913 10.363012701892218
      vertex -22.60112712429687 89.96242522832569 10.579519052838329
      vertex -22.702254248593736 90.18284469793537 10.363012701892218
    endloop
  endfacet
  facet normal -0.9060374296629753 0 0.4231975614883777
    outer loop
      vertex -22.702254248593736 90.18284469793537 10.363012701892218
      vertex -22.60112712429687 89.96242522832569 10.579519052838329
      vertex -22.60112712429687 90.10937154139881 10.579519052838329
    endloop
  endfacet
  facet normal -0.8304753217246197 -0.27852770957590095 -0.4824241443012484
    outer loop
      vertex -22.60112712429687 95.27019549241945 5.92736322179563
      vertex -22.60112712429687 89.46242522832569 9.28048094716167
      vertex -22.702254248593736 95.30305368692689 6.082479138593194
    endloop
  endfacet
  facet normal -0.16035745659089468 -0.49352950421319824 -0.8548181763315366
    outer loop
      vertex -22.60112712429687 95.27019549241945 5.92736322179563
      vertex -22.46137287570313 95.2247865844191 5.927363221795638
      vertex -22.46137287570313 89.41701632032536 9.28048094716167
    endloop
  endfacet
  facet normal -4.6180255824274017e-14 -0.5000000000000006 -0.8660254037844384
    outer loop
      vertex -22.46137287570313 95.2247865844191 5.927363221795638
      vertex -22.422745751406264 95.21223587092622 5.934609379609275
      vertex -22.46137287570313 89.41701632032536 9.28048094716167
    endloop
  endfacet
  facet normal -0.16035745659089254 -0.4935295042131984 -0.8548181763315369
    outer loop
      vertex -22.60112712429687 95.27019549241945 5.92736322179563
      vertex -22.46137287570313 89.41701632032536 9.28048094716167
      vertex -22.60112712429687 89.46242522832569 9.28048094716167
    endloop
  endfacet
  facet normal -0.8304753217246211 -0.2785277095759001 -0.4824241443012468
    outer loop
      vertex -22.60112712429687 89.46242522832569 9.28048094716167
      vertex -22.702254248593736 89.38895207178913 9.496987298107781
      vertex -22.702254248593736 95.30305368692689 6.082479138593194
    endloop
  endfacet
  facet normal -1 0 0
    outer loop
      vertex -22.702254248593736 90.18284469793537 10.363012701892218
      vertex -22.702254248593736 95.30305368692689 7.237179676972445
      vertex -22.702254248593736 95.30305368692689 6.082479138593194
    endloop
  endfacet
  facet normal -1 0 0
    outer loop
      vertex -22.702254248593736 90.18284469793537 10.363012701892218
      vertex -22.702254248593736 95.59694631307312 7.237179676972445
      vertex -22.702254248593736 95.30305368692689 7.237179676972445
    endloop
  endfacet
  facet normal -1 0 0
    outer loop
      vertex -22.702254248593736 95.30305368692689 7.237179676972445
      vertex -22.702254248593736 95.59694631307312 7.237179676972445
      vertex -22.702254248593736 96.8311148837053 6.475000381469727
    endloop
  endfacet
  facet normal -0.8304753217246205 0.27852770957589945 0.4824241443012482
    outer loop
      vertex -22.702254248593736 95.59694631307312 7.237179676972445
      vertex -22.60112712429687 95.52347315653657 7.453686027918554
      vertex -22.702254248593736 96.85180739512225 6.512685293455796
    endloop
  endfacet
  facet normal -0.16035745659089315 0.4935295042131974 0.8548181763315373
    outer loop
      vertex -22.60112712429687 95.52347315653657 7.453686027918554
      vertex -22.46137287570313 95.5688820645369 7.453686027918554
      vertex -22.60112712429687 97.03110642082433 6.583253556942782
    endloop
  endfacet
  facet normal -1 0 0
    outer loop
      vertex -22.702254248593736 95.59694631307312 7.237179676972445
      vertex -22.702254248593736 96.85180739512225 6.512685293455796
      vertex -22.702254248593736 96.8311148837053 6.475000381469727
    endloop
  endfacet
  facet normal -0.8304753217246126 0.27852770957590656 0.4824241443012574
    outer loop
      vertex -22.60112712429687 95.52347315653657 7.453686027918554
      vertex -22.648265442765474 96.89055591597374 6.583253556942782
      vertex -22.702254248593736 96.85180739512225 6.512685293455796
    endloop
  endfacet
  facet normal -0.8304753217246227 0.2785277095758983 0.482424144301245
    outer loop
      vertex -22.60112712429687 95.52347315653657 7.453686027918554
      vertex -22.60112712429687 97.03110642082433 6.583253556942782
      vertex -22.648265442765474 96.89055591597374 6.583253556942782
    endloop
  endfacet
  facet normal -0.16035745659089315 0.4935295042131974 0.8548181763315373
    outer loop
      vertex -22.46137287570313 95.5688820645369 7.453686027918554
      vertex -22.46137287570313 97.07651532882466 6.583253556942782
      vertex -22.60112712429687 97.03110642082433 6.583253556942782
    endloop
  endfacet
  facet normal -1 0 0
    outer loop
      vertex -22.702254248593736 89.38895207178913 9.496987298107781
      vertex -22.702254248593736 89.88895207178913 10.363012701892218
      vertex -22.702254248593736 95.30305368692689 6.082479138593194
    endloop
  endfacet
  facet normal -1 0 0
    outer loop
      vertex -22.702254248593736 89.88895207178913 10.363012701892218
      vertex -22.702254248593736 90.18284469793537 10.363012701892218
      vertex -22.702254248593736 95.30305368692689 6.082479138593194
    endloop
  endfacet
  facet normal -0.8304753217246211 0.2785277095759001 0.4824241443012468
    outer loop
      vertex -22.702254248593736 90.18284469793537 10.363012701892218
      vertex -22.60112712429687 90.10937154139881 10.579519052838329
      vertex -22.702254248593736 95.59694631307312 7.237179676972445
    endloop
  endfacet
  facet normal -0.1603574565908935 0.4935295042131985 0.8548181763315367
    outer loop
      vertex -22.60112712429687 90.10937154139881 10.579519052838329
      vertex -22.46137287570313 90.15478044939914 10.579519052838329
      vertex -22.60112712429687 95.52347315653657 7.453686027918554
    endloop
  endfacet
  facet normal -0.83047532172462 0.278527709575901 0.48242414430124825
    outer loop
      vertex -22.60112712429687 90.10937154139881 10.579519052838329
      vertex -22.60112712429687 95.52347315653657 7.453686027918554
      vertex -22.702254248593736 95.59694631307312 7.237179676972445
    endloop
  endfacet
  facet normal -0.16035745659089162 0.49352950421319874 0.854818176331537
    outer loop
      vertex -22.46137287570313 90.15478044939914 10.579519052838329
      vertex -22.46137287570313 95.5688820645369 7.453686027918554
      vertex -22.60112712429687 95.52347315653657 7.453686027918554
    endloop
  endfacet
  facet normal 0 -1 0
    outer loop
      vertex -22.422745751406264 95.21223587092622 3.740511776651347
      vertex 22.577254248593736 95.21223587092622 3.740511776651347
      vertex -22.422745751406264 95.21223587092622 5.934609379609275
    endloop
  endfacet
  facet normal 0 -0.8765515079563186 -0.48130806548353616
    outer loop
      vertex -22.46137287570313 89.41701632032536 9.28048094716167
      vertex 22.53862712429687 89.41701632032536 9.28048094716167
      vertex -22.422745751406264 89.29813425578847 9.496987298107781
    endloop
  endfacet
  facet normal 0 -0.8765515079563186 0.48130806548353616
    outer loop
      vertex -22.422745751406264 89.29813425578847 9.496987298107781
      vertex 22.53862712429687 89.41701632032536 9.713493649053891
      vertex -22.46137287570313 89.41701632032536 9.713493649053891
    endloop
  endfacet
  facet normal 0 -0.8660254037844384 0.5000000000000006
    outer loop
      vertex -22.46137287570313 89.41701632032536 9.713493649053891
      vertex 22.53862712429687 89.91701632032536 10.579519052838329
      vertex -22.46137287570313 89.91701632032536 10.579519052838329
    endloop
  endfacet
  facet normal 0 0 1
    outer loop
      vertex -22.60112712429687 89.96242522832569 10.579519052838329
      vertex 22.53862712429687 89.91701632032536 10.579519052838329
      vertex -22.60112712429687 90.10937154139881 10.579519052838329
    endloop
  endfacet
  facet normal 0 0 1
    outer loop
      vertex -22.46137287570313 89.91701632032536 10.579519052838329
      vertex 22.53862712429687 89.91701632032536 10.579519052838329
      vertex -22.60112712429687 89.96242522832569 10.579519052838329
    endloop
  endfacet
  facet normal 0 0 1
    outer loop
      vertex -22.60112712429687 90.10937154139881 10.579519052838329
      vertex 22.53862712429687 89.91701632032536 10.579519052838329
      vertex -22.46137287570313 90.15478044939914 10.579519052838329
    endloop
  endfacet
  facet normal 0 -0.5000000000000007 -0.8660254037844382
    outer loop
      vertex -22.422745751406264 95.21223587092622 5.934609379609275
      vertex 22.53862712429687 89.41701632032536 9.28048094716167
      vertex -22.46137287570313 89.41701632032536 9.28048094716167
    endloop
  endfacet
  facet normal 0 0.49999999999999956 0.8660254037844389
    outer loop
      vertex -22.46137287570313 95.5688820645369 7.453686027918554
      vertex 22.53862712429687 95.5688820645369 7.453686027918554
      vertex -22.46137287570313 97.07651532882466 6.583253556942782
    endloop
  endfacet
  facet normal 0 0.5000000000000007 0.8660254037844384
    outer loop
      vertex -22.46137287570313 90.15478044939914 10.579519052838329
      vertex 22.53862712429687 95.5688820645369 7.453686027918554
      vertex -22.46137287570313 95.5688820645369 7.453686027918554
    endloop
  endfacet
  facet normal 1 0 0
    outer loop
      vertex 22.75 43.25 -6.5
      vertex 22.75 43.11888206453689 -7.416746443057218
      vertex 22.75 44.75 -7.416746443057218
    endloop
  endfacet
  facet normal 1 0 0
    outer loop
      vertex 22.75 43.25 -6.5
      vertex 22.75 43.11888206453689 -6.5
      vertex 22.75 43.11888206453689 -7.416746443057218
    endloop
  endfacet
  facet normal 0.8660254037844413 0 0.4999999999999954
    outer loop
      vertex 22.75 43.25 -6.5
      vertex 22.65473724370179 43.11888206453689 -6.3350000660224435
      vertex 22.75 43.11888206453689 -6.5
    endloop
  endfacet
  facet normal 1 0 0
    outer loop
      vertex 22.75 44.75 -6.568414868911625
      vertex 22.75 43.25 -6.5
      vertex 22.75 44.75 -7.416746443057218
    endloop
  endfacet
  facet normal 1 0 0
    outer loop
      vertex 22.75 44.75 -6.5
      vertex 22.75 43.25 -6.5
      vertex 22.75 44.75 -6.568414868911625
    endloop
  endfacet
  facet normal 0.8090169943749463 -0.5877852522924745 0
    outer loop
      vertex 22.75 43.25 -6.5
      vertex 22.75 43.25 5.250680232116863
      vertex 22.65473724370179 43.11888206453689 -6.3350000660224435
    endloop
  endfacet
  facet normal 1 0 0
    outer loop
      vertex 22.75 43.25 -6.5
      vertex 22.75 44.75 -6.5
      vertex 22.75 44.75 6.116705635901301
    endloop
  endfacet
  facet normal 0.809016994374942 0.5877852522924806 0
    outer loop
      vertex 22.75 44.75 -6.5
      vertex 22.625 44.92204774005889 -6.283493649053891
      vertex 22.75 44.75 6.116705635901301
    endloop
  endfacet
  facet normal 0.8090169943749553 0.5877852522924623 0
    outer loop
      vertex 22.625 44.92204774005889 -6.283493649053891
      vertex 22.577254248593736 44.98776412907379 -6.283493649053891
      vertex 22.577254248593736 44.98776412907379 5.999531093991662
    endloop
  endfacet
  facet normal 1 0 0
    outer loop
      vertex 22.75 44.75 -6.568414868911625
      vertex 22.75 44.75 -7.416746443057218
      vertex 22.75 95.45 -6.5
    endloop
  endfacet
  facet normal 1 0 0
    outer loop
      vertex 22.75 44.75 -6.568414868911625
      vertex 22.75 95.45 -6.5
      vertex 22.75 44.75 -6.5
    endloop
  endfacet
  facet normal 0.8660254037844384 0 0.5000000000000006
    outer loop
      vertex 22.75 44.75 -6.5
      vertex 22.625 95.27795225994112 -6.283493649053891
      vertex 22.625 44.92204774005889 -6.283493649053891
    endloop
  endfacet
  facet normal 0 0 1
    outer loop
      vertex 22.625 44.92204774005889 -6.283493649053891
      vertex 22.577254248593736 95.21223587092622 -6.283493649053891
      vertex 22.577254248593736 44.98776412907379 -6.283493649053891
    endloop
  endfacet
  facet normal 0 1 0
    outer loop
      vertex -22.422745751406264 44.98776412907379 5.968835876917389
      vertex 22.53862712429687 44.98776412907379 5.968835876917389
      vertex 22.577254248593736 44.98776412907379 -6.283493649053891
    endloop
  endfacet
  facet normal 0 0.500000000000004 -0.8660254037844363
    outer loop
      vertex -22.422745751406264 44.98776412907379 5.968835876917389
      vertex 22.53862712429687 45.18635721589686 6.0834936490538905
      vertex 22.53862712429687 44.98776412907379 5.968835876917389
    endloop
  endfacet
  facet normal 0 -0.8765515079562999 0.48130806548357036
    outer loop
      vertex -22.46137287570313 43.12701632032535 6.619519052838329
      vertex 22.552929717390697 43.08299746502156 6.5393525300598645
      vertex 22.53862712429687 43.12701632032535 6.619519052838329
    endloop
  endfacet
  facet normal 0 0.4999999999999994 -0.8660254037844389
    outer loop
      vertex -22.46137287570313 45.18635721589686 6.0834936490538905
      vertex 22.53862712429687 50.79298367967465 9.32048094716167
      vertex 22.53862712429687 45.18635721589686 6.0834936490538905
    endloop
  endfacet
  facet normal 0 -0.4999999999999998 0.8660254037844387
    outer loop
      vertex -22.46137287570313 50.05521955060087 10.61951905283833
      vertex 22.53862712429687 43.12701632032535 6.619519052838329
      vertex 22.53862712429687 50.05521955060087 10.61951905283833
    endloop
  endfacet
  facet normal 0 0.8765515079563064 -0.4813080654835582
    outer loop
      vertex -22.422745751406264 50.911865744211546 9.53698729810778
      vertex 22.577254248593736 50.911865744211546 9.53698729810778
      vertex 22.53862712429687 50.79298367967465 9.32048094716167
    endloop
  endfacet
  facet normal 0 0.8765515079563064 0.4813080654835582
    outer loop
      vertex -22.422745751406264 50.911865744211546 9.53698729810778
      vertex 22.53862712429687 50.79298367967465 9.75349364905389
      vertex 22.577254248593736 50.911865744211546 9.53698729810778
    endloop
  endfacet
  facet normal 0 0.8660254037844387 0.49999999999999967
    outer loop
      vertex -22.46137287570313 50.29298367967465 10.61951905283833
      vertex 22.53862712429687 50.29298367967465 10.61951905283833
      vertex 22.53862712429687 50.79298367967465 9.75349364905389
    endloop
  endfacet
  facet normal 0 0 1
    outer loop
      vertex -22.60112712429687 50.247574771674316 10.61951905283833
      vertex 22.53862712429687 50.05521955060087 10.61951905283833
      vertex 22.625 50.17410161513776 10.61951905283833
    endloop
  endfacet
  facet normal 0 0 1
    outer loop
      vertex -22.60112712429687 50.247574771674316 10.61951905283833
      vertex 22.625 50.17410161513776 10.61951905283833
      vertex 22.53862712429687 50.29298367967465 10.61951905283833
    endloop
  endfacet
  facet normal 0.8090169943749463 -0.5877852522924744 0
    outer loop
      vertex 22.75 43.25 5.250680232116863
      vertex 22.75 43.25 6.3
      vertex 22.65473724370179 43.11888206453689 -6.3350000660224435
    endloop
  endfacet
  facet normal 1 0 0
    outer loop
      vertex 22.75 43.25 -6.5
      vertex 22.75 44.75 6.116705635901301
      vertex 22.75 43.25 5.250680232116863
    endloop
  endfacet
  facet normal 0.8090169943749465 -0.5877852522924746 0
    outer loop
      vertex 22.75 43.25 6.3
      vertex 22.65473724370179 43.11888206453689 6.3
      vertex 22.65473724370179 43.11888206453689 -6.3350000660224435
    endloop
  endfacet
  facet normal 0 1 0
    outer loop
      vertex 22.577254248593736 44.98776412907379 -6.283493649053891
      vertex 22.53862712429687 44.98776412907379 5.968835876917389
      vertex 22.577254248593736 44.98776412907379 5.999531093991662
    endloop
  endfacet
  facet normal 0.8090169943749553 0.5877852522924623 0
    outer loop
      vertex 22.625 44.92204774005889 -6.283493649053891
      vertex 22.577254248593736 44.98776412907379 5.999531093991662
      vertex 22.625 44.92204774005889 5.999531093991662
    endloop
  endfacet
  facet normal 0.8090169943749419 0.5877852522924806 0
    outer loop
      vertex 22.625 44.92204774005889 -6.283493649053891
      vertex 22.625 44.92204774005889 5.999531093991662
      vertex 22.75 44.75 6.116705635901301
    endloop
  endfacet
  facet normal 1 0 0
    outer loop
      vertex 22.75 43.25 5.250680232116863
      vertex 22.75 44.75 6.116705635901301
      vertex 22.75 43.25 6.3
    endloop
  endfacet
  facet normal 0.5669152706817772 0.4118880539260085 -0.7134110364305088
    outer loop
      vertex 22.53862712429687 44.98776412907379 5.968835876917389
      vertex 22.53862712429687 45.18635721589686 6.0834936490538905
      vertex 22.577254248593736 44.98776412907379 5.999531093991662
    endloop
  endfacet
  facet normal 0.8320502943378424 0.27735009811261746 -0.4803844614152622
    outer loop
      vertex 22.75 44.75 6.116705635901301
      vertex 22.625 44.92204774005889 5.999531093991662
      vertex 22.625 45.06747515135997 6.0834936490538905
    endloop
  endfacet
  facet normal 0.5669152706818126 0.4118880539259959 -0.7134110364304881
    outer loop
      vertex 22.625 44.92204774005889 5.999531093991662
      vertex 22.577254248593736 44.98776412907379 5.999531093991662
      vertex 22.625 45.06747515135997 6.0834936490538905
    endloop
  endfacet
  facet normal 0.5669152706818014 0.41188805392600586 -0.7134110364304913
    outer loop
      vertex 22.53862712429687 45.18635721589686 6.0834936490538905
      vertex 22.625 45.06747515135997 6.0834936490538905
      vertex 22.577254248593736 44.98776412907379 5.999531093991662
    endloop
  endfacet
  facet normal 0.7329996781371471 -0.5325554391808807 0.42319756148836446
    outer loop
      vertex 22.75 43.25 6.3
      vertex 22.72669869663935 43.25 6.340359041303224
      vertex 22.65473724370179 43.11888206453689 6.3
    endloop
  endfacet
  facet normal 0.8660254037844523 0 0.4999999999999766
    outer loop
      vertex 22.75 43.25 6.3
      vertex 22.75 43.305372796029665 6.3
      vertex 22.72669869663935 43.25 6.340359041303224
    endloop
  endfacet
  facet normal 0.7329996781371471 -0.5325554391808807 0.42319756148836446
    outer loop
      vertex 22.72669869663935 43.25 6.340359041303224
      vertex 22.631435940341138 43.11888206453689 6.340359041303224
      vertex 22.65473724370179 43.11888206453689 6.3
    endloop
  endfacet
  facet normal 0.7661050169120294 -0.5566078757048576 -0.3213577068712451
    outer loop
      vertex 22.72669869663935 43.25 6.340359041303224
      vertex 22.65771724153288 43.11888206453689 6.403012701892219
      vertex 22.631435940341138 43.11888206453689 6.340359041303224
    endloop
  endfacet
  facet normal 0.7661050169120381 -0.5566078757048444 -0.3213577068712472
    outer loop
      vertex 22.75 43.305372796029665 6.3
      vertex 22.75 43.245898384862244 6.403012701892219
      vertex 22.72669869663935 43.25 6.340359041303224
    endloop
  endfacet
  facet normal 0.7661050169120295 -0.5566078757048575 -0.3213577068712448
    outer loop
      vertex 22.72669869663935 43.25 6.340359041303224
      vertex 22.75 43.245898384862244 6.403012701892219
      vertex 22.65771724153288 43.11888206453689 6.403012701892219
    endloop
  endfacet
  facet normal 1 0 0
    outer loop
      vertex 22.75 43.25 6.3
      vertex 22.75 44.75 6.116705635901301
      vertex 22.75 43.305372796029665 6.3
    endloop
  endfacet
  facet normal 0.7329996781371348 -0.5325554391808716 0.42319756148839754
    outer loop
      vertex 22.75 43.245898384862244 6.403012701892219
      vertex 22.616732705861306 43.11888206453689 6.474
      vertex 22.65771724153288 43.11888206453689 6.403012701892219
    endloop
  endfacet
  facet normal 0.732999678137136 -0.5325554391808797 0.42319756148838505
    outer loop
      vertex 22.75 43.245898384862244 6.403012701892219
      vertex 22.625 43.245898384862244 6.619519052838329
      vertex 22.616732705861306 43.11888206453689 6.474
    endloop
  endfacet
  facet normal 0.7329996781371577 -0.5325554391808427 0.42319756148839405
    outer loop
      vertex 22.53862712429687 43.12701632032535 6.619519052838329
      vertex 22.552929717390697 43.08299746502156 6.5393525300598645
      vertex 22.616732705861306 43.11888206453689 6.474
    endloop
  endfacet
  facet normal 0.7329996781371365 -0.5325554391808792 0.42319756148838467
    outer loop
      vertex 22.53862712429687 43.12701632032535 6.619519052838329
      vertex 22.616732705861306 43.11888206453689 6.474
      vertex 22.625 43.245898384862244 6.619519052838329
    endloop
  endfacet
  facet normal 1 0 0
    outer loop
      vertex 22.75 43.305372796029665 6.3
      vertex 22.75 44.75 6.116705635901301
      vertex 22.75 45.06747515135997 6.3
    endloop
  endfacet
  facet normal 0.8320502943378426 0.2773500981126176 -0.4803844614152614
    outer loop
      vertex 22.75 44.75 6.116705635901301
      vertex 22.625 45.06747515135997 6.0834936490538905
      vertex 22.75 45.06747515135997 6.3
    endloop
  endfacet
  facet normal 1 0 0
    outer loop
      vertex 22.75 43.305372796029665 6.3
      vertex 22.75 50.67410161513776 9.53698729810778
      vertex 22.75 43.245898384862244 6.403012701892219
    endloop
  endfacet
  facet normal 1 0 0
    outer loop
      vertex 22.75 43.305372796029665 6.3
      vertex 22.75 45.06747515135997 6.3
      vertex 22.75 50.67410161513776 9.53698729810778
    endloop
  endfacet
  facet normal 0.8320502943378434 -0.2773500981126147 0.48038446141526187
    outer loop
      vertex 22.75 43.245898384862244 6.403012701892219
      vertex 22.625 50.17410161513776 10.61951905283833
      vertex 22.625 43.245898384862244 6.619519052838329
    endloop
  endfacet
  facet normal 0.5669152706817929 -0.41188805392599964 0.7134110364305014
    outer loop
      vertex 22.53862712429687 43.12701632032535 6.619519052838329
      vertex 22.625 43.245898384862244 6.619519052838329
      vertex 22.53862712429687 50.05521955060087 10.61951905283833
    endloop
  endfacet
  facet normal 0.5669152706817926 0.4118880539259995 -0.7134110364305019
    outer loop
      vertex 22.53862712429687 45.18635721589686 6.0834936490538905
      vertex 22.53862712429687 50.79298367967465 9.32048094716167
      vertex 22.625 45.06747515135997 6.0834936490538905
    endloop
  endfacet
  facet normal 0.8320502943378435 0.2773500981126144 -0.4803844614152619
    outer loop
      vertex 22.625 45.06747515135997 6.0834936490538905
      vertex 22.625 50.67410161513776 9.32048094716167
      vertex 22.75 45.06747515135997 6.3
    endloop
  endfacet
  facet normal 0.566915270681791 0.411888053926 -0.7134110364305026
    outer loop
      vertex 22.625 45.06747515135997 6.0834936490538905
      vertex 22.53862712429687 50.79298367967465 9.32048094716167
      vertex 22.625 50.67410161513776 9.32048094716167
    endloop
  endfacet
  facet normal 1 0 0
    outer loop
      vertex 22.75 43.245898384862244 6.403012701892219
      vertex 22.75 50.67410161513776 9.53698729810778
      vertex 22.75 50.17410161513776 10.40301270189222
    endloop
  endfacet
  facet normal 0.8320502943378442 -0.2773500981126141 0.48038446141526087
    outer loop
      vertex 22.75 43.245898384862244 6.403012701892219
      vertex 22.75 50.17410161513776 10.40301270189222
      vertex 22.625 50.17410161513776 10.61951905283833
    endloop
  endfacet
  facet normal 0.5669152706817927 -0.41188805392599964 0.7134110364305014
    outer loop
      vertex 22.625 43.245898384862244 6.619519052838329
      vertex 22.625 50.17410161513776 10.61951905283833
      vertex 22.53862712429687 50.05521955060087 10.61951905283833
    endloop
  endfacet
  facet normal 0.8320502943378447 0.2773500981126135 -0.4803844614152602
    outer loop
      vertex 22.75 45.06747515135997 6.3
      vertex 22.625 50.67410161513776 9.32048094716167
      vertex 22.75 50.67410161513776 9.53698729810778
    endloop
  endfacet
  facet normal 0.7329996781371351 0.5325554391808783 -0.4231975614883882
    outer loop
      vertex 22.53862712429687 50.79298367967465 9.32048094716167
      vertex 22.577254248593736 50.911865744211546 9.53698729810778
      vertex 22.625 50.67410161513776 9.32048094716167
    endloop
  endfacet
  facet normal 0.7329996781371387 0.532555439180876 -0.4231975614883849
    outer loop
      vertex 22.625 50.67410161513776 9.32048094716167
      vertex 22.577254248593736 50.911865744211546 9.53698729810778
      vertex 22.75 50.67410161513776 9.53698729810778
    endloop
  endfacet
  facet normal 0.7661050169120237 0.5566078757048549 0.3213577068712635
    outer loop
      vertex 22.75 50.67410161513776 9.53698729810778
      vertex 22.577254248593736 50.911865744211546 9.53698729810778
      vertex 22.577254248593736 50.411865744211546 10.40301270189222
    endloop
  endfacet
  facet normal 0.13589254942073975 0.8579917897386601 0.4953617907681039
    outer loop
      vertex 22.577254248593736 50.911865744211546 9.53698729810778
      vertex 22.53862712429687 50.79298367967465 9.75349364905389
      vertex 22.577254248593736 50.411865744211546 10.40301270189222
    endloop
  endfacet
  facet normal 0.7661050169120237 0.5566078757048549 0.3213577068712635
    outer loop
      vertex 22.75 50.67410161513776 9.53698729810778
      vertex 22.577254248593736 50.411865744211546 10.40301270189222
      vertex 22.75 50.17410161513776 10.40301270189222
    endloop
  endfacet
  facet normal 0.1358925494207394 0.8579917897386601 0.4953617907681039
    outer loop
      vertex 22.53862712429687 50.79298367967465 9.75349364905389
      vertex 22.53862712429687 50.29298367967465 10.61951905283833
      vertex 22.577254248593736 50.411865744211546 10.40301270189222
    endloop
  endfacet
  facet normal 0.7329996781371387 0.532555439180876 0.4231975614883849
    outer loop
      vertex 22.75 50.17410161513776 10.40301270189222
      vertex 22.577254248593736 50.411865744211546 10.40301270189222
      vertex 22.625 50.17410161513776 10.61951905283833
    endloop
  endfacet
  facet normal 0.7329996781371352 0.5325554391808782 0.4231975614883882
    outer loop
      vertex 22.577254248593736 50.411865744211546 10.40301270189222
      vertex 22.53862712429687 50.29298367967465 10.61951905283833
      vertex 22.625 50.17410161513776 10.61951905283833
    endloop
  endfacet
  facet normal 0 0 1
    outer loop
      vertex -22.422745751406264 95.21223587092622 -6.283493649053891
      vertex 22.577254248593736 44.98776412907379 -6.283493649053891
      vertex 22.577254248593736 95.21223587092622 -6.283493649053891
    endloop
  endfacet
  facet normal 0 -1 0
    outer loop
      vertex -22.422745751406264 95.21223587092622 -6.283493649053891
      vertex 22.577254248593736 95.21223587092622 -6.283493649053891
      vertex 22.577254248593736 95.21223587092622 3.740511776651347
    endloop
  endfacet
  facet normal 0.8660254037844384 0 0.5000000000000004
    outer loop
      vertex 22.75 44.75 -6.5
      vertex 22.75 95.45 -6.5
      vertex 22.625 95.27795225994112 -6.283493649053891
    endloop
  endfacet
  facet normal 1 0 0
    outer loop
      vertex 22.75 95.45 -6.581695930549856
      vertex 22.75 44.75 -7.416746443057218
      vertex 22.75 95.57488033541418 -7.416746443057218
    endloop
  endfacet
  facet normal 1 0 0
    outer loop
      vertex 22.75 95.45 -6.581695930549856
      vertex 22.75 95.45 -6.5
      vertex 22.75 44.75 -7.416746443057218
    endloop
  endfacet
  facet normal 0 0 1
    outer loop
      vertex 22.625 44.92204774005889 -6.283493649053891
      vertex 22.625 95.27795225994112 -6.283493649053891
      vertex 22.577254248593736 95.21223587092622 -6.283493649053891
    endloop
  endfacet
  facet normal 1 0 0
    outer loop
      vertex 22.75 95.57488033541418 -7.416746443057218
      vertex 22.75 96.6537356727035 -7.416746443057218
      vertex 22.75 96.66301773615152 -7.370085539594868
    endloop
  endfacet
  facet normal 1 0 0
    outer loop
      vertex 22.75 95.57488033541418 -7.416746443057218
      vertex 22.75 96.66301773615152 -7.370085539594868
      vertex 22.75 96.66456503583306 -7.362297166102756
    endloop
  endfacet
  facet normal 1 0 0
    outer loop
      vertex 22.75 95.57488033541418 -7.416746443057218
      vertex 22.75 96.66456503583306 -7.362297166102756
      vertex 22.75 96.66622593488907 -7.353923999034798
    endloop
  endfacet
  facet normal 1 0 0
    outer loop
      vertex 22.75 95.57488033541418 -7.416746443057218
      vertex 22.75 96.66622593488907 -7.353923999034798
      vertex 22.75 96.83111488370555 -6.524999618528931
    endloop
  endfacet
  facet normal 0.8090169943749552 -0.5877852522924623 0
    outer loop
      vertex 22.577254248593736 95.21223587092622 -6.283493649053891
      vertex 22.625 95.27795225994112 -6.283493649053891
      vertex 22.577254248593736 95.21223587092622 3.740511776651347
    endloop
  endfacet
  facet normal 0.8090169943749305 -0.5877852522924966 0
    outer loop
      vertex 22.75 95.45 -6.5
      vertex 22.75 95.45 3.740511776651347
      vertex 22.625 95.27795225994112 -6.283493649053891
    endloop
  endfacet
  facet normal 1 0 0
    outer loop
      vertex 22.75 95.45 -6.581695930549856
      vertex 22.75 95.57488033541418 -7.416746443057218
      vertex 22.75 96.8311148837053 6.43979262708339
    endloop
  endfacet
  facet normal 1 0 0
    outer loop
      vertex 22.75 95.57488033541418 -7.416746443057218
      vertex 22.75 96.83111488370555 -6.524999618528931
      vertex 22.75 96.8311148837053 6.43979262708339
    endloop
  endfacet
  facet normal 1 0 0
    outer loop
      vertex 22.75 95.45 -6.581695930549856
      vertex 22.75 96.8311148837053 6.43979262708339
      vertex 22.75 95.45 -6.5
    endloop
  endfacet
  facet normal 0.8090169943749373 -0.587785252292487 -2.479033348162105e-16
    outer loop
      vertex 22.625 95.27795225994112 -6.283493649053891
      vertex 22.75 95.45 3.740511776651347
      vertex 22.577254248593736 95.21223587092622 3.740511776651347
    endloop
  endfacet
  facet normal 1 0 0
    outer loop
      vertex 22.75 95.45 -6.5
      vertex 22.75 96.8311148837053 6.43979262708339
      vertex 22.75 95.45 3.740511776651347
    endloop
  endfacet
  facet normal 0 -1 0
    outer loop
      vertex -22.422745751406264 95.21223587092622 5.934609379609275
      vertex 22.577254248593736 95.21223587092622 3.740511776651347
      vertex 22.53862712429687 95.21223587092622 5.934609379609277
    endloop
  endfacet
  facet normal 0 -0.8765515079563186 -0.48130806548353616
    outer loop
      vertex -22.422745751406264 89.29813425578847 9.496987298107781
      vertex 22.53862712429687 89.41701632032536 9.28048094716167
      vertex 22.577254248593736 89.29813425578847 9.496987298107781
    endloop
  endfacet
  facet normal 0 -0.8765515079563186 0.48130806548353616
    outer loop
      vertex -22.422745751406264 89.29813425578847 9.496987298107781
      vertex 22.577254248593736 89.29813425578847 9.496987298107781
      vertex 22.53862712429687 89.41701632032536 9.713493649053891
    endloop
  endfacet
  facet normal 0 -0.8660254037844384 0.5000000000000006
    outer loop
      vertex -22.46137287570313 89.41701632032536 9.713493649053891
      vertex 22.53862712429687 89.41701632032536 9.713493649053891
      vertex 22.53862712429687 89.91701632032536 10.579519052838329
    endloop
  endfacet
  facet normal 0 0 1
    outer loop
      vertex -22.46137287570313 90.15478044939914 10.579519052838329
      vertex 22.53862712429687 89.91701632032536 10.579519052838329
      vertex 22.53862712429687 90.15478044939914 10.579519052838329
    endloop
  endfacet
  facet normal 5.132305968591243e-17 -0.5000000000000003 -0.8660254037844384
    outer loop
      vertex -22.422745751406264 95.21223587092622 5.934609379609275
      vertex 22.53862712429687 95.21223587092622 5.934609379609277
      vertex 22.53862712429687 89.41701632032536 9.28048094716167
    endloop
  endfacet
  facet normal 0 0.49999999999999956 0.8660254037844389
    outer loop
      vertex 22.53862712429687 95.5688820645369 7.453686027918554
      vertex 22.53862712429687 97.07651532882466 6.583253556942782
      vertex -22.46137287570313 97.07651532882466 6.583253556942782
    endloop
  endfacet
  facet normal 0 0.5000000000000007 0.8660254037844384
    outer loop
      vertex -22.46137287570313 90.15478044939914 10.579519052838329
      vertex 22.53862712429687 90.15478044939914 10.579519052838329
      vertex 22.53862712429687 95.5688820645369 7.453686027918554
    endloop
  endfacet
  facet normal 0.8090169943749372 -0.5877852522924871 1.1169509137539141e-15
    outer loop
      vertex 22.577254248593736 95.21223587092622 3.740511776651347
      vertex 22.75 95.45 3.740511776651347
      vertex 22.625 95.27795225994112 5.965304596683549
    endloop
  endfacet
  facet normal 0 -1 0
    outer loop
      vertex 22.577254248593736 95.21223587092622 3.740511776651347
      vertex 22.577254248593736 95.21223587092622 5.965304596683549
      vertex 22.53862712429687 95.21223587092622 5.934609379609277
    endloop
  endfacet
  facet normal 0.8090169943749552 -0.5877852522924623 0
    outer loop
      vertex 22.577254248593736 95.21223587092622 3.740511776651347
      vertex 22.625 95.27795225994112 5.965304596683549
      vertex 22.577254248593736 95.21223587092622 5.965304596683549
    endloop
  endfacet
  facet normal 0.8090169943749305 -0.5877852522924966 0
    outer loop
      vertex 22.75 95.45 3.740511776651347
      vertex 22.75 95.45 6.082479138593194
      vertex 22.625 95.27795225994112 5.965304596683549
    endloop
  endfacet
  facet normal 1 0 0
    outer loop
      vertex 22.75 95.45 3.740511776651347
      vertex 22.75 96.8311148837053 6.43979262708339
      vertex 22.75 95.45 6.082479138593194
    endloop
  endfacet
  facet normal 0.7329996781371343 -0.5325554391808887 -0.42319756148837634
    outer loop
      vertex 22.53862712429687 89.41701632032536 9.28048094716167
      vertex 22.75 89.53589838486225 9.496987298107781
      vertex 22.577254248593736 89.29813425578847 9.496987298107781
    endloop
  endfacet
  facet normal 0.7329996781371367 -0.5325554391808796 -0.4231975614883838
    outer loop
      vertex 22.53862712429687 89.41701632032536 9.28048094716167
      vertex 22.625 89.53589838486225 9.28048094716167
      vertex 22.75 89.53589838486225 9.496987298107781
    endloop
  endfacet
  facet normal 0.766105016912014 -0.5566078757048645 0.32135770687126974
    outer loop
      vertex 22.577254248593736 89.29813425578847 9.496987298107781
      vertex 22.75 89.53589838486225 9.496987298107781
      vertex 22.577254248593736 89.79813425578847 10.363012701892218
    endloop
  endfacet
  facet normal 0.13589254942089962 -0.8579917897386407 0.49536179076809367
    outer loop
      vertex 22.577254248593736 89.29813425578847 9.496987298107781
      vertex 22.53862712429687 89.91701632032536 10.579519052838329
      vertex 22.53862712429687 89.41701632032536 9.713493649053891
    endloop
  endfacet
  facet normal 0.13589254942089893 -0.8579917897386408 0.4953617907680937
    outer loop
      vertex 22.577254248593736 89.29813425578847 9.496987298107781
      vertex 22.577254248593736 89.79813425578847 10.363012701892218
      vertex 22.53862712429687 89.91701632032536 10.579519052838329
    endloop
  endfacet
  facet normal 0.766105016912014 -0.5566078757048645 0.32135770687126974
    outer loop
      vertex 22.75 89.53589838486225 9.496987298107781
      vertex 22.75 90.03589838486225 10.363012701892218
      vertex 22.577254248593736 89.79813425578847 10.363012701892218
    endloop
  endfacet
  facet normal 0.7329996781371343 -0.5325554391808888 0.42319756148837634
    outer loop
      vertex 22.577254248593736 89.79813425578847 10.363012701892218
      vertex 22.75 90.03589838486225 10.363012701892218
      vertex 22.53862712429687 89.91701632032536 10.579519052838329
    endloop
  endfacet
  facet normal 0 0 1
    outer loop
      vertex 22.53862712429687 89.91701632032536 10.579519052838329
      vertex 22.625 90.03589838486225 10.579519052838329
      vertex 22.53862712429687 90.15478044939914 10.579519052838329
    endloop
  endfacet
  facet normal 0.7329996781371367 -0.5325554391808796 0.4231975614883838
    outer loop
      vertex 22.53862712429687 89.91701632032536 10.579519052838329
      vertex 22.75 90.03589838486225 10.363012701892218
      vertex 22.625 90.03589838486225 10.579519052838329
    endloop
  endfacet
  facet normal 0.566915270681767 -0.41188805392600913 -0.7134110364305166
    outer loop
      vertex 22.53862712429687 95.21223587092622 5.934609379609277
      vertex 22.577254248593736 95.21223587092622 5.965304596683549
      vertex 22.53862712429687 89.41701632032536 9.28048094716167
    endloop
  endfacet
  facet normal 0.5669152706818102 -0.4118880539259943 -0.7134110364304909
    outer loop
      vertex 22.577254248593736 95.21223587092622 5.965304596683549
      vertex 22.625 95.27795225994112 5.965304596683549
      vertex 22.625 89.53589838486225 9.28048094716167
    endloop
  endfacet
  facet normal 0.8320502943378434 -0.2773500981126151 -0.4803844614152617
    outer loop
      vertex 22.625 95.27795225994112 5.965304596683549
      vertex 22.75 95.45 6.082479138593194
      vertex 22.625 89.53589838486225 9.28048094716167
    endloop
  endfacet
  facet normal 0.5669152706817947 -0.41188805392599975 -0.7134110364304999
    outer loop
      vertex 22.577254248593736 95.21223587092622 5.965304596683549
      vertex 22.625 89.53589838486225 9.28048094716167
      vertex 22.53862712429687 89.41701632032536 9.28048094716167
    endloop
  endfacet
  facet normal 0.8320502943378443 -0.2773500981126144 -0.4803844614152604
    outer loop
      vertex 22.625 89.53589838486225 9.28048094716167
      vertex 22.75 95.45 6.082479138593194
      vertex 22.75 89.53589838486225 9.496987298107781
    endloop
  endfacet
  facet normal 1 0 0
    outer loop
      vertex 22.75 90.03589838486225 10.363012701892218
      vertex 22.75 95.45 6.082479138593194
      vertex 22.75 95.45 7.237179676972445
    endloop
  endfacet
  facet normal 1 0 0
    outer loop
      vertex 22.75 95.45 6.082479138593194
      vertex 22.75 96.8311148837053 6.43979262708339
      vertex 22.75 95.45 7.237179676972445
    endloop
  endfacet
  facet normal 0.8320502943378433 0.2773500981126153 0.4803844614152618
    outer loop
      vertex 22.75 95.45 7.237179676972445
      vertex 22.729672793527488 96.8311148837053 6.475000381469727
      vertex 22.625 95.45 7.453686027918554
    endloop
  endfacet
  facet normal 0.5669152706817926 0.41188805392599953 0.7134110364305017
    outer loop
      vertex 22.53862712429687 95.5688820645369 7.453686027918554
      vertex 22.625 95.45 7.453686027918554
      vertex 22.53862712429687 97.07651532882466 6.583253556942782
    endloop
  endfacet
  facet normal 0.832050294337863 0.2773500981126012 0.4803844614152358
    outer loop
      vertex 22.75 95.45 7.237179676972445
      vertex 22.75 96.8311148837053 6.43979262708339
      vertex 22.729672793527488 96.8311148837053 6.475000381469727
    endloop
  endfacet
  facet normal 0.8320502943378708 0.27735009811259403 0.48038446141522645
    outer loop
      vertex 22.625 95.45 7.453686027918554
      vertex 22.647359116104674 96.89055591597374 6.583253556942782
      vertex 22.625 96.95763326428776 6.583253556942782
    endloop
  endfacet
  facet normal 0.8320502943378404 0.27735009811261785 0.4803844614152652
    outer loop
      vertex 22.625 95.45 7.453686027918554
      vertex 22.729672793527488 96.8311148837053 6.475000381469727
      vertex 22.647359116104674 96.89055591597374 6.583253556942782
    endloop
  endfacet
  facet normal 0.5669152706817924 0.4118880539259996 0.7134110364305019
    outer loop
      vertex 22.625 95.45 7.453686027918554
      vertex 22.625 96.95763326428776 6.583253556942782
      vertex 22.53862712429687 97.07651532882466 6.583253556942782
    endloop
  endfacet
  facet normal 1 0 0
    outer loop
      vertex 22.75 89.53589838486225 9.496987298107781
      vertex 22.75 95.45 6.082479138593194
      vertex 22.75 90.03589838486225 10.363012701892218
    endloop
  endfacet
  facet normal 0.8320502943378443 0.2773500981126144 0.4803844614152604
    outer loop
      vertex 22.75 90.03589838486225 10.363012701892218
      vertex 22.75 95.45 7.237179676972445
      vertex 22.625 90.03589838486225 10.579519052838329
    endloop
  endfacet
  facet normal 0.8320502943378433 0.2773500981126152 0.4803844614152616
    outer loop
      vertex 22.625 90.03589838486225 10.579519052838329
      vertex 22.75 95.45 7.237179676972445
      vertex 22.625 95.45 7.453686027918554
    endloop
  endfacet
  facet normal 0.5669152706817934 0.41188805392600025 0.7134110364305007
    outer loop
      vertex 22.625 90.03589838486225 10.579519052838329
      vertex 22.625 95.45 7.453686027918554
      vertex 22.53862712429687 95.5688820645369 7.453686027918554
    endloop
  endfacet
  facet normal 0.5669152706817936 0.4118880539260002 0.7134110364305006
    outer loop
      vertex 22.53862712429687 90.15478044939914 10.579519052838329
      vertex 22.625 90.03589838486225 10.579519052838329
      vertex 22.53862712429687 95.5688820645369 7.453686027918554
    endloop
  endfacet
endsolid OpenSCAD_Model
