solid OpenSCAD_Model
  facet normal 0 -1 0
    outer loop
      vertex -12.5 9 -5.94
      vertex -9.2 9 -3.9400000000000004
      vertex -12.5 9 -3.9400000000000004
    endloop
  endfacet
  facet normal 0 -1 0
    outer loop
      vertex -12.5 9 -5.94
      vertex -2.5 9 -3.9400000000000004
      vertex -9.2 9 -3.9400000000000004
    endloop
  endfacet
  facet normal 0 0 1
    outer loop
      vertex -9.2 9 -3.9400000000000004
      vertex -2.5 9 -3.9400000000000004
      vertex -9.2 13 -3.9400000000000004
    endloop
  endfacet
  facet normal 0 0 1
    outer loop
      vertex -9.2 13 -3.9400000000000004
      vertex -5.15 13.850000000000001 -3.9400000000000004
      vertex -5.15 19.85 -3.9400000000000004
    endloop
  endfacet
  facet normal 0 0 -1
    outer loop
      vertex -12.5 9 -5.94
      vertex -12.5 13 -5.94
      vertex 12.5 9 -5.94
    endloop
  endfacet
  facet normal 0 -1 0
    outer loop
      vertex -12.5 9 -5.94
      vertex 2.5 9 -3.9400000000000004
      vertex -2.5 9 -3.9400000000000004
    endloop
  endfacet
  facet normal 0 0 1
    outer loop
      vertex -9.2 13 -3.9400000000000004
      vertex -2.5 9 -3.9400000000000004
      vertex -2.5 13 -3.9400000000000004
    endloop
  endfacet
  facet normal 0 -1 0
    outer loop
      vertex -12.5 9 -5.94
      vertex 9.3 9 -3.9400000000000004
      vertex 2.5 9 -3.9400000000000004
    endloop
  endfacet
  facet normal 0 0 -1
    outer loop
      vertex -12.5 13 -5.94
      vertex -5.15 13.850000000000001 -5.94
      vertex 12.5 9 -5.94
    endloop
  endfacet
  facet normal 0 0 1
    outer loop
      vertex -9.2 13 -3.9400000000000004
      vertex -2.5 13 -3.9400000000000004
      vertex -5.15 13.850000000000001 -3.9400000000000004
    endloop
  endfacet
  facet normal 0 0 1
    outer loop
      vertex -2.5 13 -3.9400000000000004
      vertex 5.15 13.850000000000001 -3.9400000000000004
      vertex -5.15 13.850000000000001 -3.9400000000000004
    endloop
  endfacet
  facet normal 0 0 -1
    outer loop
      vertex -12.5 13 -5.94
      vertex -12.5 24 -5.94
      vertex -5.15 13.850000000000001 -5.94
    endloop
  endfacet
  facet normal -1 0 0
    outer loop
      vertex -12.5 13 -5.94
      vertex -12.5 13 -3.9400000000000004
      vertex -12.5 24 -3.9400000000000004
    endloop
  endfacet
  facet normal 0 0 1
    outer loop
      vertex -12.5 13 -3.9400000000000004
      vertex -9.2 13 -3.9400000000000004
      vertex -12.5 24 -3.9400000000000004
    endloop
  endfacet
  facet normal 0 0 -1
    outer loop
      vertex -12.5 24 -5.94
      vertex -5.15 19.85 -5.94
      vertex -5.15 13.850000000000001 -5.94
    endloop
  endfacet
  facet normal 0 0 1
    outer loop
      vertex -9.2 13 -3.9400000000000004
      vertex -5.15 19.85 -3.9400000000000004
      vertex -12.5 24 -3.9400000000000004
    endloop
  endfacet
  facet normal -1 0 0
    outer loop
      vertex -12.5 13 -5.94
      vertex -12.5 24 -3.9400000000000004
      vertex -12.5 24 -5.94
    endloop
  endfacet
  facet normal 0 0 1
    outer loop
      vertex -12.5 24 -3.9400000000000004
      vertex -5.15 19.85 -3.9400000000000004
      vertex -2.5 21 -3.9400000000000004
    endloop
  endfacet
  facet normal 0 0 1
    outer loop
      vertex -2.5 21 -3.9400000000000004
      vertex -5.15 19.85 -3.9400000000000004
      vertex 5.15 19.85 -3.9400000000000004
    endloop
  endfacet
  facet normal 0 1 0
    outer loop
      vertex -12.5 24 -5.94
      vertex -12.5 24 -3.9400000000000004
      vertex 12.5 24 -5.94
    endloop
  endfacet
  facet normal 0 0 1
    outer loop
      vertex -12.5 24 -3.9400000000000004
      vertex -2.5 21 -3.9400000000000004
      vertex -2.5 23.5 -3.9400000000000004
    endloop
  endfacet
  facet normal 0 0 1
    outer loop
      vertex -12.5 24 -3.9400000000000004
      vertex -2.5 23.5 -3.9400000000000004
      vertex 2.5 23.5 -3.9400000000000004
    endloop
  endfacet
  facet normal 0 0 -1
    outer loop
      vertex -12.5 24 -5.94
      vertex 12.5 24 -5.94
      vertex -5.15 19.85 -5.94
    endloop
  endfacet
  facet normal 0 -1 0
    outer loop
      vertex -12.5 9 -5.94
      vertex 12.5 9 -3.9400000000000004
      vertex 9.3 9 -3.9400000000000004
    endloop
  endfacet
  facet normal 0 -1 0
    outer loop
      vertex -12.5 9 -5.94
      vertex 12.5 9 -5.94
      vertex 12.5 9 -3.9400000000000004
    endloop
  endfacet
  facet normal 0 0 1
    outer loop
      vertex 2.5 9 -3.9400000000000004
      vertex 9.3 9 -3.9400000000000004
      vertex 2.5 13 -3.9400000000000004
    endloop
  endfacet
  facet normal 0 0 -1
    outer loop
      vertex 12.5 9 -5.94
      vertex -5.15 13.850000000000001 -5.94
      vertex 5.15 13.850000000000001 -5.94
    endloop
  endfacet
  facet normal 0 0 1
    outer loop
      vertex 2.5 13 -3.9400000000000004
      vertex 9.3 9 -3.9400000000000004
      vertex 5.15 13.850000000000001 -3.9400000000000004
    endloop
  endfacet
  facet normal 0 0 1
    outer loop
      vertex -2.5 13 -3.9400000000000004
      vertex 2.5 13 -3.9400000000000004
      vertex 5.15 13.850000000000001 -3.9400000000000004
    endloop
  endfacet
  facet normal 0 0 1
    outer loop
      vertex 9.3 9 -3.9400000000000004
      vertex 9.3 13 -3.9400000000000004
      vertex 5.15 13.850000000000001 -3.9400000000000004
    endloop
  endfacet
  facet normal 0 0 -1
    outer loop
      vertex 12.5 9 -5.94
      vertex 5.15 13.850000000000001 -5.94
      vertex 12.5 13 -5.94
    endloop
  endfacet
  facet normal 0 0 -1
    outer loop
      vertex 12.5 13 -5.94
      vertex 5.15 13.850000000000001 -5.94
      vertex 5.15 19.85 -5.94
    endloop
  endfacet
  facet normal 0 0 1
    outer loop
      vertex -2.5 21 -3.9400000000000004
      vertex 5.15 19.85 -3.9400000000000004
      vertex 2.5 21 -3.9400000000000004
    endloop
  endfacet
  facet normal 0 0 1
    outer loop
      vertex -12.5 24 -3.9400000000000004
      vertex 2.5 23.5 -3.9400000000000004
      vertex 12.5 24 -3.9400000000000004
    endloop
  endfacet
  facet normal 0 0 -1
    outer loop
      vertex 12.5 24 -5.94
      vertex 5.15 19.85 -5.94
      vertex -5.15 19.85 -5.94
    endloop
  endfacet
  facet normal 0 1 0
    outer loop
      vertex -12.5 24 -3.9400000000000004
      vertex 12.5 24 -3.9400000000000004
      vertex 12.5 24 -5.94
    endloop
  endfacet
  facet normal 0 0 1
    outer loop
      vertex 2.5 21 -3.9400000000000004
      vertex 12.5 24 -3.9400000000000004
      vertex 2.5 23.5 -3.9400000000000004
    endloop
  endfacet
  facet normal 0 0 1
    outer loop
      vertex 9.3 13 -3.9400000000000004
      vertex 12.5 24 -3.9400000000000004
      vertex 5.15 13.850000000000001 -3.9400000000000004
    endloop
  endfacet
  facet normal 0 0 1
    outer loop
      vertex 12.5 24 -3.9400000000000004
      vertex 5.15 19.85 -3.9400000000000004
      vertex 5.15 13.850000000000001 -3.9400000000000004
    endloop
  endfacet
  facet normal 1 0 0
    outer loop
      vertex 12.5 13 -5.94
      vertex 12.5 24 -5.94
      vertex 12.5 13 -3.9400000000000004
    endloop
  endfacet
  facet normal 0 0 1
    outer loop
      vertex 9.3 13 -3.9400000000000004
      vertex 12.5 13 -3.9400000000000004
      vertex 12.5 24 -3.9400000000000004
    endloop
  endfacet
  facet normal 0 0 -1
    outer loop
      vertex 12.5 13 -5.94
      vertex 5.15 19.85 -5.94
      vertex 12.5 24 -5.94
    endloop
  endfacet
  facet normal 0 0 1
    outer loop
      vertex 2.5 21 -3.9400000000000004
      vertex 5.15 19.85 -3.9400000000000004
      vertex 12.5 24 -3.9400000000000004
    endloop
  endfacet
  facet normal 1 0 0
    outer loop
      vertex 12.5 13 -3.9400000000000004
      vertex 12.5 24 -5.94
      vertex 12.5 24 -3.9400000000000004
    endloop
  endfacet
  facet normal -1 0 0
    outer loop
      vertex -2.5 9 -3.9400000000000004
      vertex -2.5 9 -2.0400000000000005
      vertex -2.5 13 -2.0400000000000005
    endloop
  endfacet
  facet normal 0 -1 0
    outer loop
      vertex -2.5 9 -3.9400000000000004
      vertex 2.5 9 -3.9400000000000004
      vertex -2.5 9 -2.0400000000000005
    endloop
  endfacet
  facet normal 0 0 1
    outer loop
      vertex -2.5 9 -2.0400000000000005
      vertex 2.5 9 -2.0400000000000005
      vertex -2.5 13 -2.0400000000000005
    endloop
  endfacet
  facet normal -1 0 0
    outer loop
      vertex -2.5 9 -3.9400000000000004
      vertex -2.5 13 -2.0400000000000005
      vertex -2.5 13 -3.9400000000000004
    endloop
  endfacet
  facet normal 0 1 0
    outer loop
      vertex -2.5 13 -3.9400000000000004
      vertex -2.5 13 -2.0400000000000005
      vertex 2.5 13 -2.0400000000000005
    endloop
  endfacet
  facet normal 0 -1 0
    outer loop
      vertex -2.5 9 -2.0400000000000005
      vertex 2.5 9 -3.9400000000000004
      vertex 2.5 9 -2.0400000000000005
    endloop
  endfacet
  facet normal 1 0 0
    outer loop
      vertex 2.5 9 -3.9400000000000004
      vertex 2.5 13 -3.9400000000000004
      vertex 2.5 9 -2.0400000000000005
    endloop
  endfacet
  facet normal 1 0 0
    outer loop
      vertex 2.5 9 -2.0400000000000005
      vertex 2.5 13 -3.9400000000000004
      vertex 2.5 13 -2.0400000000000005
    endloop
  endfacet
  facet normal 0 0 1
    outer loop
      vertex -2.5 13 -2.0400000000000005
      vertex 2.5 9 -2.0400000000000005
      vertex 2.5 13 -2.0400000000000005
    endloop
  endfacet
  facet normal 0 1 0
    outer loop
      vertex -2.5 13 -3.9400000000000004
      vertex 2.5 13 -2.0400000000000005
      vertex 2.5 13 -3.9400000000000004
    endloop
  endfacet
  facet normal 0 -1 0
    outer loop
      vertex -2.5 21 -3.9400000000000004
      vertex 2.5 21 -3.9400000000000004
      vertex -2.5 21 2.96
    endloop
  endfacet
  facet normal -1 0 0
    outer loop
      vertex -2.5 21 -3.9400000000000004
      vertex -2.5 23.5 2.96
      vertex -2.5 23.5 -3.9400000000000004
    endloop
  endfacet
  facet normal -1 0 0
    outer loop
      vertex -2.5 21 -3.9400000000000004
      vertex -2.5 21 2.96
      vertex -2.5 23.5 2.96
    endloop
  endfacet
  facet normal 0 1 0
    outer loop
      vertex -2.5 23.5 -3.9400000000000004
      vertex -2.5 23.5 2.96
      vertex 2.5 23.5 2.96
    endloop
  endfacet
  facet normal 0 0 1
    outer loop
      vertex -2.5 21 2.96
      vertex 2.5 21 2.96
      vertex -2.5 23.5 2.96
    endloop
  endfacet
  facet normal 1 0 0
    outer loop
      vertex 2.5 21 -3.9400000000000004
      vertex 2.5 23.5 -3.9400000000000004
      vertex 2.5 21 2.96
    endloop
  endfacet
  facet normal 0 1 0
    outer loop
      vertex -2.5 23.5 -3.9400000000000004
      vertex 2.5 23.5 2.96
      vertex 2.5 23.5 -3.9400000000000004
    endloop
  endfacet
  facet normal 0 -1 0
    outer loop
      vertex -2.5 21 2.96
      vertex 2.5 21 -3.9400000000000004
      vertex 2.5 21 2.96
    endloop
  endfacet
  facet normal 1 0 0
    outer loop
      vertex 2.5 23.5 -3.9400000000000004
      vertex 2.5 23.5 2.96
      vertex 2.5 21 2.96
    endloop
  endfacet
  facet normal 0 0 1
    outer loop
      vertex -2.5 23.5 2.96
      vertex 2.5 21 2.96
      vertex 2.5 23.5 2.96
    endloop
  endfacet
  facet normal -1 0 0
    outer loop
      vertex -12.5 9 -5.94
      vertex -12.5 13 -3.9400000000000004
      vertex -12.5 13 -5.94
    endloop
  endfacet
  facet normal 0 -1 0
    outer loop
      vertex -12.5 9 -3.9400000000000004
      vertex -9.2 9 -3.9400000000000004
      vertex -12.5 9 -0.6400000000000006
    endloop
  endfacet
  facet normal -1 0 0
    outer loop
      vertex -12.5 9 -5.94
      vertex -12.5 9 -3.9400000000000004
      vertex -12.5 13 -0.6400000000000006
    endloop
  endfacet
  facet normal -1 0 0
    outer loop
      vertex -12.5 9 -3.9400000000000004
      vertex -12.5 9 -0.6400000000000006
      vertex -12.5 13 -0.6400000000000006
    endloop
  endfacet
  facet normal 0 -1 0
    outer loop
      vertex -9.2 9 -3.9400000000000004
      vertex -9.2 9 -0.6400000000000006
      vertex -12.5 9 -0.6400000000000006
    endloop
  endfacet
  facet normal -1 0 0
    outer loop
      vertex -12.5 9 -5.94
      vertex -12.5 13 -0.6400000000000006
      vertex -12.5 13 -3.9400000000000004
    endloop
  endfacet
  facet normal 1 0 0
    outer loop
      vertex -9.2 9 -3.9400000000000004
      vertex -9.2 13 -3.9400000000000004
      vertex -9.2 9 -0.6400000000000006
    endloop
  endfacet
  facet normal 1 0 0
    outer loop
      vertex -9.2 13 -3.9400000000000004
      vertex -9.2 13 -0.6400000000000006
      vertex -9.2 9 -0.6400000000000006
    endloop
  endfacet
  facet normal 0 1 0
    outer loop
      vertex -12.5 13 -3.9400000000000004
      vertex -9.2 13 -0.6400000000000006
      vertex -9.2 13 -3.9400000000000004
    endloop
  endfacet
  facet normal 0 1 0
    outer loop
      vertex -12.5 13 -3.9400000000000004
      vertex -12.5 13 -0.6400000000000006
      vertex -9.2 13 -0.6400000000000006
    endloop
  endfacet
  facet normal 0 0 1
    outer loop
      vertex -12.5 9 -0.6400000000000006
      vertex -9.2 9 -0.6400000000000006
      vertex -12.5 13 -0.6400000000000006
    endloop
  endfacet
  facet normal 0 0 1
    outer loop
      vertex -9.2 9 -0.6400000000000006
      vertex -9.2 13 -0.6400000000000006
      vertex -12.5 13 -0.6400000000000006
    endloop
  endfacet
  facet normal 0 -1 0
    outer loop
      vertex 12.5 9 -5.94
      vertex 12.600000000000001 9 -5.94
      vertex 12.5 9 -3.9400000000000004
    endloop
  endfacet
  facet normal 0 0 -1
    outer loop
      vertex 12.5 9 -5.94
      vertex 12.5 13 -5.94
      vertex 12.600000000000001 9 -5.94
    endloop
  endfacet
  facet normal 1 0 0
    outer loop
      vertex 12.600000000000001 9 -5.94
      vertex 12.600000000000001 13 -5.94
      vertex 12.600000000000001 9 -0.6400000000000006
    endloop
  endfacet
  facet normal 0 0 -1
    outer loop
      vertex 12.600000000000001 9 -5.94
      vertex 12.5 13 -5.94
      vertex 12.600000000000001 13 -5.94
    endloop
  endfacet
  facet normal -1 0 0
    outer loop
      vertex 9.3 9 -3.9400000000000004
      vertex 9.3 9 -0.6400000000000006
      vertex 9.3 13 -0.6400000000000006
    endloop
  endfacet
  facet normal -1 0 0
    outer loop
      vertex 9.3 9 -3.9400000000000004
      vertex 9.3 13 -0.6400000000000006
      vertex 9.3 13 -3.9400000000000004
    endloop
  endfacet
  facet normal 0 -1 0
    outer loop
      vertex 9.3 9 -3.9400000000000004
      vertex 12.5 9 -3.9400000000000004
      vertex 9.3 9 -0.6400000000000006
    endloop
  endfacet
  facet normal 0 -1 0
    outer loop
      vertex 12.600000000000001 9 -5.94
      vertex 12.600000000000001 9 -0.6400000000000006
      vertex 12.5 9 -3.9400000000000004
    endloop
  endfacet
  facet normal 0 -1 0
    outer loop
      vertex 12.5 9 -3.9400000000000004
      vertex 12.600000000000001 9 -0.6400000000000006
      vertex 9.3 9 -0.6400000000000006
    endloop
  endfacet
  facet normal 1 0 0
    outer loop
      vertex 12.600000000000001 13 -5.94
      vertex 12.600000000000001 13 -0.6400000000000006
      vertex 12.600000000000001 9 -0.6400000000000006
    endloop
  endfacet
  facet normal 0 1 0
    outer loop
      vertex 12.5 13 -5.94
      vertex 12.5 13 -3.9400000000000004
      vertex 12.600000000000001 13 -5.94
    endloop
  endfacet
  facet normal 0 1 0
    outer loop
      vertex 12.600000000000001 13 -5.94
      vertex 12.5 13 -3.9400000000000004
      vertex 12.600000000000001 13 -0.6400000000000006
    endloop
  endfacet
  facet normal 0 1 0
    outer loop
      vertex 9.3 13 -3.9400000000000004
      vertex 12.600000000000001 13 -0.6400000000000006
      vertex 12.5 13 -3.9400000000000004
    endloop
  endfacet
  facet normal 0 1 0
    outer loop
      vertex 9.3 13 -3.9400000000000004
      vertex 9.3 13 -0.6400000000000006
      vertex 12.600000000000001 13 -0.6400000000000006
    endloop
  endfacet
  facet normal 0 0 1
    outer loop
      vertex 9.3 9 -0.6400000000000006
      vertex 12.600000000000001 9 -0.6400000000000006
      vertex 9.3 13 -0.6400000000000006
    endloop
  endfacet
  facet normal 0 0 1
    outer loop
      vertex 12.600000000000001 9 -0.6400000000000006
      vertex 12.600000000000001 13 -0.6400000000000006
      vertex 9.3 13 -0.6400000000000006
    endloop
  endfacet
  facet normal 1 0 0
    outer loop
      vertex -5.15 19.85 -3.9400000000000004
      vertex -5.15 13.850000000000001 -3.9400000000000004
      vertex -5.15 13.850000000000001 -5.94
    endloop
  endfacet
  facet normal 0 1 0
    outer loop
      vertex -5.15 13.850000000000001 -3.9400000000000004
      vertex 5.15 13.850000000000001 -5.94
      vertex -5.15 13.850000000000001 -5.94
    endloop
  endfacet
  facet normal 1 0 0
    outer loop
      vertex -5.15 13.850000000000001 -5.94
      vertex -5.15 19.85 -5.94
      vertex -5.15 19.85 -3.9400000000000004
    endloop
  endfacet
  facet normal 0 -1 0
    outer loop
      vertex -5.15 19.85 -5.94
      vertex 5.15 19.85 -3.9400000000000004
      vertex -5.15 19.85 -3.9400000000000004
    endloop
  endfacet
  facet normal 0 1 0
    outer loop
      vertex 5.15 13.850000000000001 -3.9400000000000004
      vertex 5.15 13.850000000000001 -5.94
      vertex -5.15 13.850000000000001 -3.9400000000000004
    endloop
  endfacet
  facet normal -1 0 0
    outer loop
      vertex 5.15 19.85 -5.94
      vertex 5.15 13.850000000000001 -5.94
      vertex 5.15 13.850000000000001 -3.9400000000000004
    endloop
  endfacet
  facet normal 0 -1 0
    outer loop
      vertex 5.15 19.85 -3.9400000000000004
      vertex -5.15 19.85 -5.94
      vertex 5.15 19.85 -5.94
    endloop
  endfacet
  facet normal -1 0 0
    outer loop
      vertex 5.15 13.850000000000001 -3.9400000000000004
      vertex 5.15 19.85 -3.9400000000000004
      vertex 5.15 19.85 -5.94
    endloop
  endfacet
endsolid OpenSCAD_Model
